<svg xmlns="http://www.w3.org/2000/svg" viewBox="0 0 237.22 237.22">
  <g id="Layer_2" data-name="Layer 2">
    <g id="Layer_1-2" data-name="Layer 1">
      <g>
        <circle cx="118.61" cy="118.61" r="114.11" fill="#110f6f" stroke="#110f6f" stroke-linecap="round" stroke-miterlimit="10" stroke-width="9"/>
        <g>
          <path d="M68.83,69.46h99.55a16.22,16.22,0,0,1,16.22,16.22v82.78a8.73,8.73,0,0,1-8.73,8.73H61.34a8.73,8.73,0,0,1-8.73-8.73V85.68A16.22,16.22,0,0,1,68.83,69.46Z" fill="#fff"/>
          <path d="M77.78,60h1.15A2.09,2.09,0,0,1,81,62.12V77.79a0,0,0,0,1,0,0H75.69a0,0,0,0,1,0,0V62.12A2.09,2.09,0,0,1,77.78,60Z" fill="#e6e6e6"/>
          <path d="M157.69,60h1.15a2.09,2.09,0,0,1,2.09,2.09V77.79a0,0,0,0,1,0,0H155.6a0,0,0,0,1,0,0V62.12A2.09,2.09,0,0,1,157.69,60Z" fill="#e6e6e6"/>
          <rect x="75.54" y="103.83" width="24.86" height="24.86" rx="5.78" fill="#110f6f"/>
          <path d="M61.66,69.46h113.9a9.05,9.05,0,0,1,9.05,9.05V92a0,0,0,0,1,0,0h-132a0,0,0,0,1,0,0V78.51A9.05,9.05,0,0,1,61.66,69.46Z" fill="#e6e6e6"/>
        </g>
      </g>
    </g>
  </g>
</svg>
