<svg xmlns="http://www.w3.org/2000/svg" viewBox="0 0 237.22 237.22">
  <g id="Layer_2" data-name="Layer 2">
    <g id="Layer_1-2" data-name="Layer 1">
      <g>
        <circle cx="118.61" cy="118.61" r="114.11" fill="#110f6f" stroke="#110f6f" stroke-linecap="round" stroke-miterlimit="10" stroke-width="9"/>
        <g>
          <path d="M108.33,45.81v34A14.84,14.84,0,0,1,97,94.27l4.53,92.54a8,8,0,1,1-16.06,0L90,94.27A14.85,14.85,0,0,1,78.65,79.84v-34a2.3,2.3,0,0,1,2.3-2.3,2.32,2.32,0,0,1,2.31,2.3V74.22h.07a3.85,3.85,0,0,0,3.77,3.07h.51a3.84,3.84,0,0,0,3.76-3.07h.08V45.81a2.3,2.3,0,0,1,3.93-1.62,2.26,2.26,0,0,1,.67,1.62V74.22h.08a3.84,3.84,0,0,0,7.52,0h.08V45.81a2.3,2.3,0,0,1,3.93-1.62A2.26,2.26,0,0,1,108.33,45.81Z" fill="#fff"/>
          <path d="M144.87,93.35l4.43,92a8,8,0,1,1-16.06,0l4.42-91.77c-8.32-2.2-14.87-12.86-14-25.61,1-14.57,7.4-26,17.15-26s16.63,12,17.65,26C159.38,80.32,152.89,90.68,144.87,93.35Z" fill="#fff"/>
        </g>
      </g>
    </g>
  </g>
</svg>
