<svg xmlns="http://www.w3.org/2000/svg" viewBox="0 0 237.22 237.22">
  <g id="Layer_2" data-name="Layer 2">
    <g id="Layer_1-2" data-name="Layer 1">
      <g>
        <circle cx="118.61" cy="118.61" r="114.11" fill="#110f6f" stroke="#110f6f" stroke-linecap="round" stroke-miterlimit="10" stroke-width="9"/>
        <g>
          <path d="M62.72,106.53H174.1a6.07,6.07,0,0,1,6.07,6.07v56.3a0,0,0,0,1,0,0H56.65a0,0,0,0,1,0,0V112.6A6.07,6.07,0,0,1,62.72,106.53Z" fill="#fff" stroke="#fff" stroke-linecap="round" stroke-miterlimit="10" stroke-width="9"/>
          <rect x="108.33" y="124.88" width="21.7" height="44.03" fill="#e6e6e6" stroke="#110f6f" stroke-linecap="round" stroke-miterlimit="10" stroke-width="9"/>
          <rect x="70.1" y="124.88" width="18.34" height="25.59" fill="#e6e6e6" stroke="#110f6f" stroke-linecap="round" stroke-miterlimit="10" stroke-width="7"/>
          <rect x="150.2" y="124.88" width="18.34" height="25.59" fill="#e6e6e6" stroke="#110f6f" stroke-linecap="round" stroke-miterlimit="10" stroke-width="7"/>
          <line x1="35.24" y1="168.9" x2="201.57" y2="168.9" fill="none" stroke="#fff" stroke-linecap="round" stroke-miterlimit="10" stroke-width="9"/>
          <path d="M118.46,68.31l42,21.25,34.31,17.36a2.05,2.05,0,0,1-1,3.89H43.15a2.05,2.05,0,0,1-1-3.89L76.44,89.56Z" fill="#f2f2f2" stroke="#fff" stroke-linecap="round" stroke-miterlimit="10" stroke-width="9"/>
        </g>
      </g>
    </g>
  </g>
</svg>
