<svg xmlns="http://www.w3.org/2000/svg" viewBox="0 0 455.93 455.97">
  <g id="Layer_2" data-name="Layer 2">
    <g id="Layer_1-2" data-name="Layer 1">
      <g>
        <path d="M228,0h-9.37l-.61,0H215.7l-1.23.06h-1.6l-1.94.14h0a228.45,228.45,0,0,0-27.65,3.75,6,6,0,1,0,2.34,11.77A218.16,218.16,0,0,1,228,12a6,6,0,0,0,0-12ZM142.61,17a6.06,6.06,0,0,0-2.31.46q-5.15,2.14-10.16,4.54h0l-.07,0h0l-.06,0h0l-.07,0h0l-.06,0h0l-.06,0h0l-.06,0h0l-.06,0h0l-.06,0h0l-.06,0,0,0,0,0h0l-.05,0h0l-.05,0h0l0,0h0l-.05,0,0,0,0,0h0l-.06,0h0l-.05,0h0l0,0,0,0,0,0,0,0-.05,0,0,0,0,0h0l-.05,0h0l0,0,0,0,0,0,0,0,0,0,0,0,0,0-.05,0h0l0,0h0l0,0,0,0,0,0,0,0,0,0h0l0,0h0l-.06,0h0l-.89.44h0l-.07,0h0l-.15.07h0l-.07,0h0c-.1.06-.2.1-.3.15h0L126,24h0l-.07,0h0l-.07,0h0l-.07,0h0l-.07,0h0l-.08,0h0l-.07,0h0l-.07,0h0l-.07,0h0l-.08,0h0l-.15.07h0l-.31.16h0l-.07,0h0l-.07,0h0l-.07,0h0l-.08,0h0l-.3.15h0q-5.44,2.8-10.73,5.87h0l-.07,0h0l-.07,0h0l-.14.08h0l-.07.05h0l-.07,0h0l-.29.17h0l-.3.17h0l-.22.13h0l-.07,0h0l-1.47.87h0l-.22.14h0l-.07,0h0l-.06,0h0l-.07,0h0l-.07,0h0l0,0h0l0,0h0l0,0h0l0,0,0,0,0,0,0,0,0,0,0,0,0,0h0l0,0,0,0,0,0,0,0,0,0,0,0,0,0h0l0,0,0,0,0,0,0,0,0,0,0,0,0,0h0l0,0,0,0,0,0,0,0,0,0,0,0,0,0,0,0,0,0,0,0,0,0,0,0,0,0,0,0,0,0,0,0-.05,0,0,0,0,0,0,0,0,0,0,0,0,0,0,0,0,0,0,0,0,0,0,0,0,0,0,0,0,0h0l0,0,0,0,0,0,0,0h0l-.06,0h0l0,0h0l-.29.19h0l-.14.09h0l-.14.09h0l-.07,0h0l-.07,0h0l-.06,0,0,0,0,0h0l0,0h0l0,0h0l-.06,0h0l-.06,0h0l-.07,0h0l-.07,0h0l-.06,0h0l0,0h0l-.06,0h0l-.06,0h0l-.06,0h0l-.06,0h0l-.06,0h0l-.06,0h0l-.06,0h0l0,0h0l-.06,0h0l-.06,0h0l-.07,0h0l-.06,0h0l-.29.19h0q-2.07,1.32-4.09,2.69a6,6,0,0,0,3.36,11,5.91,5.91,0,0,0,3.34-1,215.84,215.84,0,0,1,37.47-20.18A6,6,0,0,0,142.61,17ZM70.39,65.65a6,6,0,0,0-4.24,1.76,229.1,229.1,0,0,0-28.4,34.88,6,6,0,0,0,1.71,8.29,5.93,5.93,0,0,0,3.3,1,6,6,0,0,0,5-2.69,218.28,218.28,0,0,1,26.88-33,6,6,0,0,0-4.26-10.22Zm-48.06,72.6A6,6,0,0,0,16.78,142q-3.48,8.53-6.27,17.4h0l0,.07h0l0,.07v0l0,.06v0l0,.07h0l0,.07v0l0,.06v0l0,.06v0l0,0v.12l0,0v.08l0,.05v.08l0,0v.13l0,0v.08l0,.05v.11l0,.06v0l0,.06v0l0,.06v0l0,.06v0l0,.07v0l0,.06v0l0,.07h0l0,.07h0l0,.08h0l0,.08h0l0,.07h0l0,.08h0l0,.07h0l0,.08h0l0,.08h0a227.66,227.66,0,0,0-5.64,23,6,6,0,0,0,4.77,7,5.48,5.48,0,0,0,1.13.11,6,6,0,0,0,5.89-4.88,213.78,213.78,0,0,1,12.07-40.79,6,6,0,0,0-3.29-7.82,5.89,5.89,0,0,0-2.27-.45ZM6,223.77H6a6,6,0,0,0-5.95,6q.08,9,.82,17.73h0v.09h0v.18h0v.09h0V248h0v.18h0v.09h0v.09h0v.09h0v.09h0L1,249.78H1v2.5h0v.09l0,.27v2.78h0c0,.32.08.63.11.95h0v.08h0v.25h0V257h0v.08h0v1.21H2v.07H2l0,.17H2c.07.52.15,1,.22,1.55h0v.08h0v.08h0v.08h0v.16h0v.08h0v.08h0v.16h0v.16h0v.08h0c.11.77.23,1.55.35,2.32h0v.08h0l0,.08h0v.08h0v.08h0l0,.09h0V264h0l0,.25h0v.08h0v.09h0l0,.17h0c.13.86.28,1.71.43,2.57h0l0,.17h0l.06.34h0v.09h0c.14.8.29,1.59.43,2.39h0l0,.08h0l0,.09h0v.08h0l0,.08H4v.08H4l0,.09H4l0,.08H4c.17.91.35,1.82.53,2.72h0l0,.17h0l0,.08h0l0,.08h0l.05.25h0l0,.09h0v.08h0v.08h0l0,.08h0l0,.07h0a6,6,0,0,0,5.87,4.78,6.38,6.38,0,0,0,1.22-.12,6,6,0,0,0,4.66-7.1A217.09,217.09,0,0,1,12,229.73a6,6,0,0,0-6-6ZM23.69,309a6.1,6.1,0,0,0-2.35.48,6,6,0,0,0-3.17,7.88A227.83,227.83,0,0,0,39.8,356.75a6,6,0,0,0,5,2.61,5.93,5.93,0,0,0,3.39-1.06A6,6,0,0,0,49.69,350a216.43,216.43,0,0,1-20.48-37.3A6,6,0,0,0,23.69,309ZM72.9,380.84a6,6,0,0,0-4.2,10.29q2.82,2.75,5.73,5.41h0l.06,0h0l.06,0h0l.05,0h0l.05,0,0,0,0,0h0l0,.05h0l.06.05h0l.06.05v0l0,0h0l.06.05h0l0,.05h0l0,0,0,0,.05,0h0l0,0h0l.06,0h0l.06,0v0l.05,0h0l.06.05h0l0,.05h0l0,0,0,0,0,0h0l0,.05h0l.13.11h0l.38.34h0l.12.1h0l0,0,0,0,0,0,0,0,0,0,0,0,0,0,0,0,0,0,0,0,0,0,0,0,0,0h0l0,0,0,0,0,0,0,0,0,0,0,0,0,0,0,0,0,0,0,0,0,0,0,0,0,0,0,0,0,0,0,0,0,0,0,0,0,0,0,0,0,0,0,0,0,0,0,0,0,0,0,0,0,0,0,0,0,0,0,0,0,0,0,0,0,0,0,0,0,0,0,0,0,0,0,0,0,0,0,0,0,0,0,0h0l0,.05h0l0,.05h0l.06.05h0l.4.34h0l.07.06h0l0,0,0,0,.05,0h0l.05.05h0l0,0v0l.06,0h0l0,.05h0l0,0,0,0,0,0,0,0,0,0,0,0,0,0,0,0,0,0,0,0,0,0h0l0,0,0,0,0,0,0,0,0,0h0l.05,0,0,0,0,0,0,0,.05,0h0l0,.05h0l0,0h0l.06,0h0l.06.05h0l.05.05h0l.07.06h0l.06.05h0l.06.05h0l.74.62h0l.07.05h0l.06.06h0l.06.05h0l.07.06h0l.06.05h0l.06,0h0l.06.05h0l.07.05h0l0,.05h0l.06,0h0l.06.05h0l.05,0,0,0,0,0h0l.06.05h0l.06,0h0l0,.05h0l0,.05h0l.06.05h0l.06.05h0l.06.05h0l.07.05h0L84.3,405h0l.06,0h0l.06.05h0l.06.05h0l0,.05h0l.06.05h0l.06,0h0l.06.05h0l.06,0h0l0,0h0l.06,0h0l.06.05h0l.06.05h0l.06.05h0l0,0h0l0,.05h0l.06.05h0l.06.05h0l0,0h0l.06.05h0l.07.05h0l.07.05h0l.07.05h0l.82.65h0l.06,0h0l.06.05h0l.06.05h0l.06.05h0l.06,0h0l.07.05h0l.06,0h0l.06,0h0l.06.05h0l.06.05h0l.06.05h0l.06,0h0l.06,0v0l0,0,0,0,0,0h0l0,0,0,0,0,0h0l.05,0h0l.06.05h0l.06,0h0l.06,0v0l.06,0h0l.06,0h0l.06.05h0l.06.05h0l.06.05h0l.83.65h0l.07.05h0l.07.05h0l.06,0h0l.05.05h0l0,0h0l.05,0,0,0,0,0,0,0,0,0,0,0,0,0,0,0,0,0,0,0,0,0,0,0,0,0,0,0,0,0,0,0,0,0,0,0,0,0,0,0,0,0,0,0,0,0,0,0,0,0,0,0,0,0,0,0,0,0,0,0,0,0,0,0,.05,0,0,0,0,0h0l.05,0,0,0,.06,0h0l0,0h0l.06.05h0l.07.05h0l.42.32h0l0,0h0l.06,0,0,0,0,0h0l.05,0,0,0,0,0,0,0,0,0,0,0,0,0,0,0,0,0,0,0,0,0,0,0,0,0,0,0,0,0,0,0,0,0,0,0,0,0,0,0,0,0,0,0,0,0,0,0,0,0,0,0,0,0,0,0,0,0,0,0,0,0,0,0,0,0,0,0,0,0,0,0,0,0,0,0,0,0,0,0,0,0,0,0,0,0,0,0,0,0,0,0,0,0,0,0,0,0,0,0,0,0,0,0,0,0,0,0,0,0h0l0,0,.16.12h0l0,0,0,0,.06,0h0l.06,0h0l0,0,0,0,0,0h0l.06,0h0l0,0h0l0,0,0,0,0,0,0,0,0,0,0,0,0,0,0,0,0,0,0,0,0,0,0,0,0,0,0,0,0,0,0,0,0,0,0,0,0,0,0,0,0,0,0,0,0,0,0,0,0,0,0,0,0,0,0,0,0,0,0,0,.05,0,0,0,0,0,0,0,0,0,0,0,0,0,0,0,0,0,0,0,0,0,0,0,0,0,0,0,0,0,0,0,0,0,0,0,0,0,0,0,0,0h0l0,0h0l.13.09h0l.4.29h0l.06,0h0l0,0,0,0,0,0,0,0,0,0,0,0,0,0,0,0,0,0,0,0,0,0,0,0,0,0,0,0,.06,0h0l0,0,0,0,0,0h0l0,0h0l0,0h0l0,0h0l0,0h0l0,0h0l0,0,0,0,0,0,0,0,0,0,0,0,0,0,0,0,0,0,0,0,0,0,0,0,0,0h0l0,0h0l0,0h0l0,0h0l0,0h0l.06,0h0l.7.48h0l.07,0h0l.05,0h0l0,0h0l.05,0,0,0,0,0,0,0,0,0,0,0,0,0,0,0,0,0h0l.05,0h0l0,0,0,0,0,0,0,0,0,0,0,0,0,0,0,0,0,0,0,0,0,0,0,0,.05,0,0,0,0,0,0,0,0,0,0,0,0,0,0,0,0,0,0,0,.05,0h0l0,0,0,0,0,0,0,0,0,0,0,0,0,0h0l.06,0h0l0,0h0l.05,0,0,0,0,0h0l.06,0h0l.06,0h0l.07,0h0l.27.18h0l.13.08h0l.07,0h0l.06,0,0,0,.06,0h0l.06,0h0l0,0h0l0,0,0,0,0,0,0,0,.05,0h0l0,0,0,0,0,0,0,0,.05,0h0l0,0h0l.05,0,0,0,0,0,0,0,0,0,0,0,.05,0h0l0,0,0,0,.05,0,0,0,0,0h0l0,0a6,6,0,1,0,6.54-10.06,218,218,0,0,1-33.23-26.62,6,6,0,0,0-4.19-1.71Zm73,47.48a6,6,0,0,0-2.23,11.58q4.2,1.67,8.46,3.17l0,0,.12,0,.09,0h0a227.75,227.75,0,0,0,34.47,9.13,6.56,6.56,0,0,0,1.07.1A6,6,0,0,0,189,440.49a214.55,214.55,0,0,1-40.9-11.74,5.91,5.91,0,0,0-2.21-.43ZM275,439a6.1,6.1,0,0,0-1.27.14,217,217,0,0,1-42.3,4.82,6,6,0,0,0,.09,12h.1a228.62,228.62,0,0,0,44.64-5.09A6,6,0,0,0,275,439Zm79.79-34.77a6,6,0,0,0-3.43,1.08,215.39,215.39,0,0,1-37.14,20.78,6,6,0,0,0,4.8,11l1.61-.71h0l.07,0h0l.06,0,0,0,.05,0h0l0,0,0,0,0,0,0,0h0l0,0,0,0,0,0h0l.05,0h0l.05,0,0,0,.05,0h0l.05,0h0l.06,0h0l.06,0h0l.05,0,0,0,.05,0h0l.06,0h0l.06,0h0l.06,0h0l.06,0h0l.07,0h0l.07,0h0l.07,0h0l.07,0h0a227.59,227.59,0,0,0,28.35-15.46h0L351,420h0l.06,0h0l.06,0h0l.07,0h0l.06,0h0l.05,0,0,0,0,0,0,0,0,0,0,0,0,0,0,0,0,0,0,0,0,0,0,0,0,0,0,0,0,0,0,0,0,0,0,0h0l.05,0h0l.05,0,0,0,.05,0,0,0,0,0h0l.05,0h0l.05,0,0,0,0,0,0,0,.05,0h0l.05,0h0l0,0h0l.06,0h0l.06,0h0l.06,0h0l.06,0h0l.07,0h0l.22-.15h0q2.49-1.63,4.93-3.34a6,6,0,0,0-3.44-10.92Zm60.35-62.78a6,6,0,0,0-5.06,2.76,216.75,216.75,0,0,1-26.35,33.44,6,6,0,0,0,8.65,8.32c.94-1,1.86-2,2.77-2.94h0l.05-.06h0l0-.05h0l0-.06h0l0-.06h0l0,0h0l0-.06h0l.05,0h0l0-.06h0l0,0h0l0,0,0,0,0-.05h0l.05-.05v0l.05-.05h0l.05-.05v0l.05,0v0l0-.05h0l0-.05,0,0,0,0,0,0,.05-.06h0l.05-.05h0l.36-.39h0l.11-.13h0l0-.05,0,0,0,0,0,0,0,0,0,0,0,0,0,0,0,0,0,0,0,0,0,0,0,0,0,0,0,0,0,0,0,0,0,0,0,0,0,0,0,0,0,0,0,0,0,0,0,0,0,0,0,0,0,0,0,0,0,0,0,0,0,0,0,0,0,0,0,0,0,0,0,0,0,0,0,0,0,0v0l0,0,0,0,0-.05,0,0,0,0,0,0,0,0v0l0,0,0,0,0,0,0,0,0-.05h0l.05-.05h0l0-.06h0l0-.05v0c.19-.2.37-.42.56-.62h0l0-.07h0l.05-.05v0l.05-.05h0l0-.05h0l0-.06h0l.05-.05h0l0-.05,0,0,0-.05h0l.05-.05v0l.05-.05h0l0-.06h0l.05-.05h0l.05-.06h0l.05-.06h0l.05-.06h0l0-.06h0l0,0v0l0,0h0l0,0h0l0-.06h0l0-.05,0,0,0-.05,0,0,0,0h0l0-.06h0l0-.05h0l.05-.06h0c.18-.22.37-.43.55-.64h0l0-.05h0l0-.05,0,0,0-.05h0l.05-.06h0l0-.05,0,0,0,0v0l0-.05,0,0,0,0,0,0,0,0,0,0,0,0,0,0,0,0v0l0-.05,0,0,0,0,0,0,0,0,0,0,0,0,0,0,0,0,0,0,0,0,0,0,0,0,0,0,0,0,0,0,0,0,0,0,0,0,0,0,0,0,0,0,0,0,0,0,0,0,0,0,0,0,0,0,0,0,0,0,0,0,0,0,0,0,0,0,0,0,0,0,0,0,0,0,0,0,0,0,0,0,.22-.27,0,0,0,0h0l0-.06h0l0-.05,0,0,0-.05,0,0,0-.05h0l0-.05,0,0,0,0,0,0,0,0,0,0,0,0v0l0-.05,0,0,0-.05v0l0,0,0,0,0,0v0L404,373v0l0-.05h0l.05-.05v0l0-.05v0l.05-.05v0l0-.05h0l0-.06h0l0-.06h0l.05-.06h0l.05-.06h0l.05-.06h0l.05-.06h0l.05-.06h0a228.83,228.83,0,0,0,15.58-21.5,6,6,0,0,0-5.05-9.23Zm31.54-81.13a6,6,0,0,0-5.9,5,215.7,215.7,0,0,1-11.42,41,6,6,0,0,0,3.42,7.76,5.92,5.92,0,0,0,2.17.41,6,6,0,0,0,5.6-3.82c.41-1.05.81-2.11,1.2-3.17h0l0-.07v0l0-.07h0l0-.07h0l0-.07h0l0-.07h0l0-.06v0l0-.05,0,0v0l0,0v0l0,0v0l0-.06v0l0-.06v0l0-.06v0l0-.06v0l0-.05v0l0-.06v0l0-.06h0l0-.07h0l0-.08h0a228.16,228.16,0,0,0,8.91-31.33h0l0-.08h0v-.09h0l0-.17h0l0-.09h0v-.08h0V274l0-.07v0l0-.07v-.28l0-.06v-1.29l0-.06V272h0l0-.08h0l0-.08h0v-.09h0l0-.08h0l0-.08h0c.27-1.39.52-2.79.77-4.19a6,6,0,0,0-4.88-6.94,6.18,6.18,0,0,0-1-.09Zm-2.06-87.07a5.92,5.92,0,0,0-1.31.15,6,6,0,0,0-4.55,7.17,216.65,216.65,0,0,1,5.16,42.25,6,6,0,0,0,6,5.86h.14a6,6,0,0,0,5.86-6.14A228.81,228.81,0,0,0,453,190.91h0l0-.17h0v-.08h0v-.08h0v-.08h0v-.08h0l0-.07v-2.15l0-.08h0v-.17h0l0-.17h0l0-.08v-.09h0l0-.16h0v-.08h0l0-.07v-.37l0-.07v-.09h0l0-.08h0v-.16h0l0-.08h0v-.08h0l0-.08h0v-.08h0V186h0l0-.08h0v-.08h0l0-.08h0l0-.08h0v-.09h0c-.48-2.55-1-5.08-1.57-7.6a6,6,0,0,0-5.85-4.68ZM409.21,93.74a5.93,5.93,0,0,0-3.46,1.11,6,6,0,0,0-1.43,8.36,216.07,216.07,0,0,1,21.08,37,6,6,0,0,0,11-4.87A228.55,228.55,0,0,0,414.1,96.26a6,6,0,0,0-4.89-2.52ZM346,33.9A6,6,0,0,0,342.76,45a217.07,217.07,0,0,1,33.65,26.08,6,6,0,1,0,8.25-8.71l-.23-.22h0l-.06-.05h0l-.06,0h0l-.05,0h0l-.05-.05h0l-.06,0h0l-.05-.05v0l-.05,0,0,0,0,0,0,0,0,0,0,0,0,0,0,0,0,0,0,0,0,0,0,0,0,0,0,0,0,0-.05,0,0,0-.06,0s0,0,0,0a229.64,229.64,0,0,0-34.29-26.38A6,6,0,0,0,346,33.9ZM264.57,3a6,6,0,0,0-1,11.92A215,215,0,0,1,304.67,26a5.91,5.91,0,0,0,2.13.4,6,6,0,0,0,2.13-11.61,225.71,225.71,0,0,0-26.28-8.2h0l-.08,0h0l-.08,0h0l-.07,0h0l-.07,0h0l-.07,0h-.46l-.06,0H281l-.07,0h0l-.09,0h0l-.08,0h0q-7.51-1.78-15.23-3.06a5.29,5.29,0,0,0-1-.08Z" fill="#1b1948"/>
        <path d="M228,57.67H201.74l-.17,0h-.1l-.16,0h-.18l-.08,0h-.18l-.08,0h-.18l-.16,0h0l-.06,0h0l-.16,0h-.1l-.16,0h-.09l-.08,0h-.26l-.17,0h-.09l-.17,0h0l-.07,0h0l-.25,0h0l-.25,0h0l-.26,0h0q-7.47,1.32-14.7,3.27a6,6,0,1,0,3.12,11.59A158.76,158.76,0,0,1,228,69.67a6,6,0,0,0,0-12ZM145.14,80a6,6,0,0,0-3,.82c-2.3,1.35-4.57,2.74-6.81,4.2h0l-.21.14h0l-.38.24h0l-.21.14h0l-.37.25h0l-.21.14h0l-.21.14h0l-.15.1h0l-.05,0h0l-.15.1h0l-.16.1h0l-.05,0h0l-.15.1h0l-.05,0h0l-.14.1h0l-.2.14h0l-.15.1h0l0,0h0l-.15.1h0l-.2.14h0l-.15.1h0l-.05,0h0l-.15.1h0l-.05,0h0l-.15.1h0l-.15.1h0l0,0h0l-.09.06h0l0,0v0l0,0h0l-.1.07h0l0,0h0l-.14.1h0l0,0h0l-.13.1h0l0,0h0l-.1.06h0l-.05,0v0l-.05,0h0l-.09.06h0l0,0,0,0-.13.09h0l0,0,0,0-.07,0h0l0,0h0l0,0,0,0-.07.05h0l0,0,0,0-.06,0,0,0,0,0,0,0,0,0,0,0-.08,0h0l0,0h0l0,0h0l-.07,0,0,0,0,0h0l-.12.1h0l0,0,0,0-.06,0,0,0,0,0h0l0,0,0,0-.06,0,0,0,0,0,0,0-.12.09,0,0,0,0,0,0-.08.06h0l0,0,0,0,0,0,0,0-.06,0,0,0,0,0,0,0,0,0-.06,0,0,0,0,0,0,0,0,0-.06,0,0,0,0,0,0,0,0,0,0,0-.06,0,0,0,0,0,0,0,0,0,0,0,0,0,0,0,0,0,0,0,0,0-.05,0,0,0,0,0,0,0,0,0,0,0,0,0,0,0,0,0,0,0-.05,0,0,0,0,0,0,0,0,0,0,0,0,0,0,0,0,0,0,0,0,0,0,0-.05,0,0,0,0,0,0,0-.06,0,0,0,0,0,0,0,0,0,0,0,0,0,0,0,0,0,0,0,0,0,0,0,0,0,0,0,0,0,0,0-.06,0h0l0,0,0,0,0,0,0,0,0,0,0,0,0,0,0,0,0,0,0,0,0,0,0,0,0,0,0,0-.06,0h0l0,0,0,0,0,0h0l-.05,0,0,0,0,0,0,0-.06,0h0l-.06.05h0l-.05,0h0l-.06.05h0l0,0,0,0,0,0h0l-.06,0,0,0,0,0,0,0,0,0,0,0,0,0,0,0,0,0,0,0-.06,0h0l0,0h0l0,0h0l-.06,0,0,0,0,0h0l-.05,0h0l-.06.05h0l-.05,0h0l-.06.05h0l-.05,0,0,0,0,0h0l-.06,0,0,0,0,0v0l-.06,0h0l-.06,0,0,0,0,0,0,0-.06,0h0l0,0h0l0,0h0l-.07,0h0l0,0h0l-.12.1h0l-.06,0h0l-.13.1h0l-.06,0h0l-.07.06h0l0,0h0l-.13.1h0l-.06,0h0l-.13.1h0l-.06.05h0l-.07.06h0l-.06.05h0l-.13.11h0l-.06,0h0l-.14.11h0l-.07.05h0l-.06.06h0l-.06,0h0l-.13.1h0l-.07.05h0l-.13.11h0l-.19.17h0l-.2.16h0l-.54.44h0a170,170,0,0,0-12.67,11.62,6,6,0,0,0,8.54,8.43,159,159,0,0,1,32.94-25.62,6,6,0,0,0-3-11.18ZM84.88,141.17a6,6,0,0,0-5.22,3v0l0,.05,0,0,0,0,0,0,0,0,0,0,0,0v0l0,0v0l0,.06,0,0,0,0v0l0,0v0l0,.06v0l0,.05,0,0,0,0,0,0,0,.06,0,0,0,.05v0l0,0v0l0,.07v0l0,0v0l0,.05v0l0,.07,0,0,0,.05,0,0,0,.05v0l0,.06v0l0,.06h0l0,.07h0l0,.06v0l0,0v0l0,.07v0l0,0v0l0,.05v0l0,.07h0l0,.06v0l0,.05v0l0,.06v0l0,.05v0l0,.06h0l0,.07v0l0,.05v0l0,.06h0l0,.07v0l0,0v0l0,.07h0l0,.06,0,0,0,.05v0l0,.07h0l0,.06v0l0,.06h0l0,.07h0l0,.06v0l0,.05v0l0,.07v0l0,.05v0l0,.06h0l0,.07v0l0,.05v0l0,.06h0l0,.07v0l0,0v0l-.07.14v0l0,.05v0l0,.07h0l0,.06v0l0,.05v0l0,.07v0l0,0,0,0,0,0v0l0,.07v0l0,.05,0,0,0,.06h0l0,.07v0l0,.05v0l0,.07h0l0,.07v0l0,0v0l0,.07h0l0,.06v0l0,.05v0l0,.06v0l0,.05v0l0,0v0l0,.06v0l0,.06h0l0,.07h0l0,.07h0l0,.06v0l0,.06h0l0,.07v0l0,0v0l0,.06h0l0,.07v0l0,.05v0l-.07.14v0l0,.06h0l0,.08h0l0,.06v0l0,.05,0,0,0,.07h0l0,.06v0l0,.06h0l0,.07v0l0,.05v0l0,.06h0l0,.07v0l0,.06v0l-.07.14h0l0,.06v0l-.07.14v0l0,0v0l0,.07h0l0,.06v0l0,0v0l0,.07h0l0,.06v0l0,.06h0l0,.07h0l0,.06v0l0,.06h0l0,.07v0l0,.06v0l0,.06h0l0,.07v0l0,.05v0l-.07.14v0l0,.06v0l0,.07h0l0,.07v0l0,.05v0l0,.07h0l0,.06v0l0,.06v0l0,.07h0l0,.06v0l0,.06h0l0,.07v0l0,.06h0l0,.07h0l0,.07v0l0,.05v0l0,.07h0l0,.07v0l0,.06v0l0,.07h0l0,.06v0l0,.06h0l0,.07v0l0,.06v0l0,.06h0l0,.07h0l0,.06v0l0,.07h0l0,.08h0l0,.06v0l0,.06h0l0,.07v0l0,.06v0l-.07.14v0l0,.06h0l0,.08h0l0,.07v0l0,.06h0l0,.07h0l0,.07h0l0,.07h0l0,.07h0l0,.06v0l0,.07h0l0,.08h0l0,.06v0l-.07.15h0l0,.06v0l-.07.14v0l0,.06v0l-.06.14v0l0,.06h0l0,.08h0l0,.07v0l0,.06h0l0,.08h0l0,.06v0l0,.06h0l0,.08h0l0,.06v0l0,.06h0l0,.07v0l0,0v0l0,.07h0l0,.07v0l0,.06v0l0,.07h0l0,.07v0l0,.06h0l0,.08h0l0,.07v0l0,.06h0l0,.08h0l0,.06v0l0,.06h0l0,.08h0l0,.06v0l0,.07h0l0,.08h0l0,.07h0l-.07.15h0l0,.07h0l-.06.15v0l0,.06h0l0,.08h0l0,.07v0l0,.06h0l0,.08h0l0,.07v0l0,.07h0l0,.08h0l0,.07h0l0,.07h0l0,.08h0l0,.07h0l-.06.15v0l0,.06h0l-.06.15v0l0,.06h0l-.06.16h0l0,.07h0l0,.08h0l0,.07h0l0,.07h0l0,.07h0l0,.07v0l-.06.15h0l0,.06v0l-.06.15h0l0,.07h0l-.06.15v0l0,.06h0l0,.08h0l0,.07v0l0,.06v0l0,.07h0l0,.06v0l0,.05v0l0,.07v0l0,.06v0l0,.06h0l0,.08h0l0,.06v0l0,.07h0l0,.07v0l0,.06v0l0,.07h0l0,.08h0l0,.06v0l0,.08h0l0,.07v0l0,.06h0l0,.08h0l0,.08h0l0,.07h0l0,.07h0l0,.07v0l-.06.15h0l0,.06v0l-.06.15v0l0,.06v0l-.06.15h0l0,.07h0l0,.08h0l0,.07v0l0,.06v0l0,.07h0l0,.07v0l0,.06h0l0,.08h0l0,.06v0l0,.07h0l0,.07h0l0,.07h0l-.06.16h0l0,.07h0l-.06.15v0l0,.06v0l-.05.15v0l0,.06h0l0,.08h0l0,.07h0l0,.07h0l0,.08h0l0,.07v0l0,.07h0l0,.08v0l0,.06v0l0,.15h0l0,.07h0l0,.16h0l0,.07h0l0,.15v0l0,.06v0l0,.07h0l0,.07v0l0,.07h0l0,.08h0l0,.07h0l0,.08h0l0,.08h0l0,.07h0l-.06.16h0l0,.07h0l0,.16h0l0,.07h0l-.05.15v0l0,.06v0l0,.08h0l0,.07v0l0,.07h0l0,.08h0l0,.07h0l-.06.16h0l0,.07h0l-.06.16h0l0,.07h0l0,.16h0l0,.07h0l-.06.16h0l0,.07h0l-.05.16h0l0,.08h0l0,.08h0l0,.08h0l-.06.16h0l0,.08h0l0,.16h0a2.25,2.25,0,0,1-.08.24h0l0,.07h0l0,.16h0a2.25,2.25,0,0,1-.08.24h0l0,.08h0l0,.16h0l-.06.16h0l0,.08h0l0,.17h0l0,.08h0l0,.15v0l0,.07h0l0,.16h0l0,.08h0l-.06.16h0a2.25,2.25,0,0,1-.08.24h0c0,.08,0,.16-.08.25h0l-.05.17h0l0,.08h0l-.05.17h0l0,.08h0l0,.16h0c-.1.34-.21.68-.31,1h0l-.21.67h0l-.08.26h0c-.72,2.4-1.4,4.83-2,7.27a6,6,0,0,0,4.33,7.3,5.91,5.91,0,0,0,1.49.19,6,6,0,0,0,5.81-4.52A157.07,157.07,0,0,1,90.1,150.13a6,6,0,0,0-5.22-9Zm-21.2,83.16h-.09a6,6,0,0,0-5.91,6.06,170.47,170.47,0,0,0,6.49,44.43,6,6,0,0,0,5.77,4.34,5.92,5.92,0,0,0,1.65-.23,6,6,0,0,0,4.12-7.41,158.37,158.37,0,0,1-6-41.27,6,6,0,0,0-6-5.92Zm23.54,82.51a6,6,0,0,0-5.13,9.1A172,172,0,0,0,92.33,331h0l.16.21h0l.1.14h0l.15.21h0l.1.14h0l0,.07h0l.1.14h0l0,.06h0l0,.07h0l.05.06h0l0,.06h0l.05.06v0l0,.05h0l.1.13h0l0,.06h0l0,.06h0l0,.05v0l0,.05h0l0,.07h0l0,.05v0l.1.12v0l0,0h0l0,.07h0l0,.06,0,0,0,0,0,0,0,.06,0,0,0,0,0,0,0,.05v0l0,.05,0,0,0,0,0,0,0,0,0,0,0,0,0,0,0,0,0,0,0,.06,0,0,0,0,0,0,0,0,0,0,0,0,0,0,0,0,0,0,0,.05,0,0,0,0,0,0,0,0,0,.05,0,0,0,0,0,0,0,0,0,0,0,0,0,0,0,0,0,0,0,0,0,0,0,0,0,0,0,0,0,0,0,.05,0,0,0,0,0,0,0,0,0,0,0,.06,0,0,0,0,0,0,0,0,0,0,0,.06,0,0,0,0,0,0,0,.06,0,0,0,0,0,0,0,0,0,0,0,.07,0,0,0,0h0l0,0v0l.06.07,0,0,0,0h0l.1.13,0,0,0,0,0,0,0,.06,0,0,0,0,0,0,0,0,0,0,0,.06,0,0,0,0,0,0,.1.12,0,0,0,0v0l.07.07h0l0,0v0l0,0h0l.07.08h0l0,0h0l.11.13v0l0,0h0l.11.13v0l0,0h0l.07.09h0l0,0h0l.12.13v0l0,0h0l.07.08h0l0,0h0l0,0h0l.07.08h0l0,.05h0l.11.13h0l0,0h0l.12.14h0l.16.18h0l.12.14h0l0,.05h0l.12.14h0l.12.14h0l0,.05h0l.12.14h0l0,0h0l.12.13h0l.17.19h0l.12.14h0l0,0h0l.12.13h0l.13.14h0l0,.05h0l.12.14h0l.16.19h0l.16.18h0l.12.14h0l0,0h0l.12.14h0l0,.05h0l.13.14h0l.13.13h0l0,0h0l.13.14h0l.17.18h0l.13.14h0l0,0h0l.12.13h0l0,0h0l.13.13h0l.12.13h0l0,0h0l.12.13h0l0,0h0l.13.14h0l.12.14h0l0,0h0l.12.13h0l0,0h0l.07.08h0l0,0h0l.12.13h0l0,0h0l.12.13h0l0,0h0l.12.14h0l.12.13h0l0,0h0l.12.13h0l0,0h0l.07.08h0l0,0h0l.12.12v0l0,0h0l.11.12h0l0,0h0l.08.09h0l0,0h0l.12.12v0l0,0v0l.11.12,0,0,0,0,0,0,.06.06,0,0,0,0,0,0,0,0,0,0,.06.06,0,0,0,0,0,0,0,0v0l.07.06,0,0,0,0,0,0,0,.06,0,0,0,0,0,0,0,0,0,0,0,.05,0,0,0,0,0,0,0,0,0,.05,0,0,0,0,0,0,0,0,0,.05,0,0,0,0,0,0,0,0,0,0,0,.05,0,0,0,0,0,0,0,0,0,.05,0,0,0,0,0,0,0,0,0,0,0,0,0,0,0,0,0,0,0,0,0,0,0,0,0,0,0,0,0,0,0,0,0,0,0,0,0,0,0,0,0,0,0,0,0,0,0,0,0,0,0,0,0,0,0,0,0,0,0,0h0l.06.06,0,0,0,0,0,0,0,0,0,0,0,.05,0,0,0,0,0,0,0,.05h0l0,.05,0,0,0,0h0l.05.06h0l.05,0v0l.06.05h0l.06.06h0l.05.05h0l.11.12h0l0,.05h0l.06.05h0l.05.05h0l0,.06h0l.06.06h0l0,0,0,0,.11.11h0l0,.05h0l.06.06h0l.06.06h0l0,.05h0l.06.06h0l.06.05h0l.12.12h0l.06.06h0l.12.12h0l.12.12h0l.06.05h0l.12.12h0l.19.18h0l.18.18h0l.5.48a6,6,0,1,0,8.31-8.66,159,159,0,0,1-26.08-32.57,6,6,0,0,0-5.14-2.9Zm62,59.41a6,6,0,0,0-2.89,11.26,169.36,169.36,0,0,0,41.87,16.14,5.64,5.64,0,0,0,1.4.17A6,6,0,0,0,191,382a156.84,156.84,0,0,1-38.89-15,6,6,0,0,0-2.88-.73ZM275.39,379.4a6.08,6.08,0,0,0-1.73.25,158.46,158.46,0,0,1-41.18,6.62,6,6,0,0,0,.16,12h.17a170.22,170.22,0,0,0,41.65-6.35h0l.5-.14s0,0,0,0l.33-.09h0l.16-.05h0l.08,0h0l.16-.05h0l.07,0h0l.07,0h0l.09,0h0l.07,0h0l.07,0h0l.16-.05h0l.06,0h0l.16,0h0l.07,0h0l.16-.05h0l.07,0h0l.07,0h0l.08,0h.09a6,6,0,0,0-1.73-11.74ZM348.23,334a6,6,0,0,0-4.39,1.91,159.19,159.19,0,0,1-32.2,26.53A6,6,0,0,0,318,372.65q6.09-3.79,11.82-8.08h0l.21-.15h0l.36-.27h0l.2-.16h0l.15-.11h0l.2-.15h0l.2-.15h0l.14-.12h0l.05,0h0l.14-.11h0l.05,0h0l.1-.08h0l.05,0h0l.35-.27h0l.19-.15h0l.14-.11h0l.05,0h0l.13-.11h0l0,0h0l.08-.06h0l0,0h0l.13-.1h0l0,0h0l.13-.11h0l0,0h0l.08-.07h0l0,0h0l.13-.11h0l0,0h0l.13-.1v0l0,0h0l.07-.06h0l0,0,0,0,0,0h0l.07-.06h0l0,0h0l.13-.1,0,0,0,0h0l.07-.06h0l0,0,0,0,.12-.1h0l0,0,0,0,.05,0,0,0,0,0,0,0,0,0,0,0,.07-.05h0l0,0,0,0,0,0,0,0,.07-.05,0,0,0,0h0l.07-.06h0l0,0,0,0,0,0,0,0,.06-.05,0,0,0,0,0,0,0,0,0,0,.05,0,0,0,0,0,0,0,.05,0,0,0,0,0,0,0,0,0,0,0,0,0,0,0,0,0,0,0,0,0,0,0,.05-.05,0,0,0,0,0,0,0,0,.05,0,0,0,0,0,0,0,0,0,.05,0,0,0,0,0,0,0,0,0,0,0,0,0,0,0,0,0,0,0,0,0,0,0,0,0,0,0,0,0,0,0,.05,0,0,0,0,0,0,0,0,0,0,0,.06-.05,0,0,0,0,0,0,.05,0,0,0,0,0,0,0,0,0,0,0,.05,0,0,0,0,0,0,0,0,0,0,0,0,0,0,0,0,0,0,0,0,0,.05,0,0,0,0,0,0,0,0,0,.05,0,0,0,0,0,0,0,0,0,0,0,.05,0,0,0,0,0,0,0,0,0,.05,0,0,0,0,0,0,0,0,0,0,0,0,0,0,0,0,0,0,0,.05,0,0,0,0,0,0,0,0,0,0,0,.05,0,0,0,0,0,0,0,0,0,0,0,0,0,0,0,0,0,0,0,0,0,0,0,0,0,0,0,0,0,0,0,.05,0,0,0,0,0,0,0,0,0,0,0,0,0,0,0,0,0,0,0,0,0,0,0,0,0,0,0,0,0,0,0,.05,0,0,0,0,0,0,0,0,0,.06-.05,0,0,0,0,0,0,0,0,0,0,.07-.06h0l0,0,0,0,0,0h0l.07-.06,0,0,0,0,0,0,.05,0,0,0,0,0,0,0,0,0,0,0,0-.05,0,0,0,0,0,0,0,0,.05,0,0,0,0,0,0,0,0,0,.06-.05,0,0,0,0,0,0,0,0,0,0,.06-.06h0l0,0h0l.12-.11,0,0,0,0,0,0,.06,0,0,0,0,0,0,0,0,0,0,0,.06-.06h0l0,0,0,0,.11-.1,0,0,0,0,0,0,.06-.06h0l0,0,0,0,0,0,0,0,.06-.05,0,0,0,0v0l.12-.1,0,0,0,0v0l.07-.06h0l0,0h0l0,0h0l.08-.07h0l0,0v0l.12-.11h0l0,0h0l.08-.08h0l0,0h0l0,0h0l.09-.08h0l.05,0h0l.13-.12h0l0,0h0l.13-.12v0l.18-.16h0l.13-.12h0l0,0h0l.14-.13h0l.51-.48h0l.51-.48h0q3.65-3.47,7.07-7.15a6,6,0,0,0-4.4-10.08Zm40.1-75.87a6,6,0,0,0-5.85,4.69A157.17,157.17,0,0,1,368,301.94a6,6,0,0,0,2.5,8.11,5.87,5.87,0,0,0,2.8.7,6,6,0,0,0,5.3-3.19q2.14-4,4.06-8.19h0l.11-.24h0l.11-.24h0l.07-.16h0l0-.07h0l.07-.15v0l0-.06h0l.07-.15h0l0-.07h0l.06-.15h0l0-.06v0l0-.07h0l0-.06v0l0-.06v0l0-.07v0l0-.05v0l0,0v0l0-.06v0l0,0v0l0-.05,0,0,0-.06v0l0,0v0l0-.05,0,0,0,0,0,0v0l0,0v0l0,0,0-.05v0l0,0v0l0,0,0-.06,0,0,0,0v0l0,0v0l0-.07,0,0v0l0,0v-.07l0-.07v0l0,0v0l.06-.14v0l0,0v0l.07-.15v0l0,0v0l.07-.15v0l0-.05h0l.07-.17h0l.1-.22v0l.1-.22v0l.07-.16h0l0-.05v0l.07-.16h0l0-.05h0l.08-.17h0l0-.06h0l.18-.42h0a168.16,168.16,0,0,0,6.47-18.52h0l0-.06h0l.05-.18v-.07h0l.05-.17v-.07h0l0-.18h0v-.06h0l.05-.18v0l.07-.23v0l.05-.18h0l0-.06h0l0-.18h0l0-.05v0l0-.17h0l0-.05v0l.05-.16v-.1l0-.08v-.16l0-.1v-.17l0-.08v-.17l0-.08v-.29l0,0v-.07l0-.07v-.19l0-.07v-.18l0-.07v0l0,0v0l0-.06v0l0-.07v-.19l0-.07v-.18h0v-.17l0-.08v0l0,0v-.19h0v-.09l0-.06v0l0-.07v0l0-.06v0l0-.06h0l0-.08v-.17h0l0-.08v0l0-.06v0l0-.08h0l0-.08h0l0-.07v0l0-.16v-.1l0-.16h0l0-.07v0l0-.16h0l0-.08h0l0-.09h0l0-.08h0l.06-.25h0l0-.17h0l0-.08h0l0-.17h0l0-.08s0,0,0,0c.1-.4.19-.81.28-1.21a6,6,0,0,0-5.86-7.32Zm-3.62-85.77a6,6,0,0,0-5.72,7.81,158.51,158.51,0,0,1,7.2,41.08,6,6,0,0,0,6,5.75h.25a6,6,0,0,0,5.75-6.23,170.86,170.86,0,0,0-1.81-18.66h0v-.06h0l0-.2h0v-.06h0l0-.27h0l0-.26h0l0-.26h0l0-.26h0l-.05-.26h0l0-.25h0l0-.26h0l0-.26h0l0-.26h0v-.06h0l0-.19h0v-.06h0l0-.26h0l0-.26h0c0-.09,0-.17,0-.26h0l-.05-.25h0l0-.25h0v-.06h0l0-.19h0v-.06h0l0-.19h0v-.06h0l-.05-.25h0l-.05-.25h0l-.05-.26h0v-.06h0l0-.19h0v-.06h0l0-.18v-.09l0-.18h0v-.06h0l0-.18h0v-.06h0l0-.18h0V195h0l0-.11h0v-.14l0-.11h0v-.14l0-.11h0v-.15l0-.16v-.1l0-.15v-.19l0-.07v-.15h0l0-.1v-.17l0-.1h0v-.15l0-.1h0v-.15l0-.1h0v-.15l0-.16V192l0-.15v-.2l0-.05v-1.26l0-.07v-.18l0-.08v-.18l0-.07v-.19l0-.07h0V189h0l0-.08v-.18l0-.07v-.17h0l0-.08v-.25h0V188h0l0-.08h0v-.07h0v-.07h0l0-.16v0l0-.07h0l0-.16h0l0-.07h0l0-.16h0l0-.08h0l0-.17h0l0-.08h0l-.12-.5h0q-1.23-4.89-2.74-9.65a6,6,0,0,0-5.72-4.2ZM338.3,100.19a6,6,0,0,0-4,10.44,159.07,159.07,0,0,1,27,31.83,6,6,0,0,0,10.1-6.48c-2.72-4.24-5.64-8.36-8.72-12.33h0l-.16-.2h0l-.16-.2h0l-.12-.15h0l-.15-.2h0l-.11-.15h0l-.16-.2h0l-.16-.2h0l-.16-.2h0l-.11-.14h0l0,0h0l-.08-.1h0l0,0h0l-.11-.14h0l0,0h0l-.11-.14h0l0,0h0l-.07-.08v0l0,0,0,0-.1-.14h0l0,0h0l-.1-.13v0l0,0h0l-.06-.08h0l0,0,0,0-.1-.13h0l0,0v0l-.06-.07v0l0,0,0,0,0,0v0l-.06-.07,0,0,0,0v0l0,0h0l-.06-.08,0,0,0,0,0,0-.05-.06,0,0,0,0,0,0,0,0,0,0,0,0,0,0,0,0,0,0,0,0,0,0,0,0,0,0,0,0,0,0,0,0,0,0,0,0,0,0,0,0,0,0,0-.06,0,0,0,0,0,0,0,0,0,0-.05-.06,0,0,0,0,0,0,0,0,0,0,0,0,0,0,0,0,0,0,0,0,0,0,0,0,0,0,0,0,0,0,0,0,0,0,0,0,0,0,0,0,0,0,0,0,0,0,0,0,0,0,0,0,0,0,0,0,0,0,0,0,0,0,0,0,0,0,0,0,0,0,0,0,0,0,0,0,0,0,0,0,0,0,0,0,0,0,0,0,0,0,0,0,0-.06,0,0,0,0,0,0,0,0v0l-.05-.06,0,0,0,0,0,0,0,0,0,0,0,0,0,0,0,0,0,0,0-.05,0,0,0,0,0,0,0,0h0l-.05-.06,0,0,0,0,0,0-.1-.12,0,0,0,0v0l-.05,0v0l0,0h0l0,0h0l0-.06,0,0,0,0v0l0-.06h0l-.05-.06,0,0,0,0v0l-.05,0,0,0,0,0,0,0,0-.05h0l-.05-.06v0l0,0,0,0,0,0h0l-.05-.06h0l0,0h0l-.05-.06h0l0,0v0l0-.05h0l0-.06h0l-.05,0h0l-.11-.12v0l0,0v0l-.05-.06h0l0,0h0l-.05-.06h0l-.05-.06h0l0,0,0,0-.1-.12h0l-.05,0h0l0-.06h0l0,0h0l0-.06h0l-.06-.07h0l0-.06h0l-.11-.12h0l-.05,0h0l-.06-.06h0l-.05-.06h0l-.17-.19h0l-.12-.12h0l-.06-.06h0l-.12-.13h0l-.12-.13h0l0-.06h0l-.11-.12h0l-.05-.07h0l-.12-.12h0l-.17-.19h0l-.12-.13h0l-.06-.06h0l-.12-.13h0l-.18-.19h0l-.12-.12h0l-.06-.06h0l-.12-.12h0l-.18-.18h0l-.3-.32h0l-.18-.19h0q-4.47-4.71-9.29-9.08a6,6,0,0,0-4-1.55Zm-76.43-39A6,6,0,0,0,260.65,73,157.74,157.74,0,0,1,300,86.92a6,6,0,1,0,5.46-10.68l0,0h0l0,0,0,0-.09,0h0l0,0h0l0,0h0L305,76h0l0,0,0,0,0,0h0l-.06,0,0,0,0,0,0,0h0l0,0-.06,0,0,0,0,0h0l0,0,0,0-.06,0h0l0,0,0,0,0,0,0,0-.05,0,0,0,0,0,0,0h0l-.06,0,0,0,0,0h0l0,0,0,0-.07,0h0l0,0,0,0,0,0h0l-.07,0,0,0,0,0h0l0,0,0,0-.06,0h0l0,0,0,0,0,0,0,0,0,0,0,0,0,0h0l-.06,0h0l-.06,0h0l0,0,0,0-.06,0h0l0,0,0,0-.05,0h0l-.07,0h0l-.06,0h0l0,0h0l-.07,0h0l-.05,0h0l-.05,0h0l-.07,0h0l-.06,0h0l-.05,0h0l-.07,0h0l-.05,0h0l-.06,0h0l-.07,0h0l-.06,0h0l-.06,0h0l-.07,0h0l-.05,0h0l-.07,0h0l-.07,0h0l-.06,0h0l-.06,0h0l-.06,0h0l-.05,0h0l-.07,0h0l-.06,0h0l0,0h0l-.07,0h0l-.06,0h0l-.06,0h0l-.08,0h0l-.07,0h0l-.07,0h0l-.07,0h0l-.07,0h0l-.07,0h0l-.08,0h0l-.06,0h0l-.15-.07h0l-.06,0h0l-.15-.07h0l-.07,0h0l-.15-.07h0l-.07,0h0l-.16-.08h0l-.08,0h0l-.16-.07h0l-.47-.21h0a169.43,169.43,0,0,0-34.77-11.33,5.87,5.87,0,0,0-1.24-.13Z" fill="#1b1948"/>
        <path d="M228,115.33h-8.13l-.18,0h-.54l-.35,0h-.09l-.45,0H218l-.18,0h-.09l-.8.07h0a111.76,111.76,0,0,0-32.76,8.31,6,6,0,0,0,4.68,11,100,100,0,0,1,39.15-7.9,6,6,0,0,0,0-12Zm-76.42,32.26a6,6,0,0,0-4.29,1.8,113,113,0,0,0-14.2,17.88h0l-.55.86h0l0,0h0l0,0h0l0,0h0l0,0h0l0,0h0l0,0h0l0,0h0l0,0h0l0,0h0v0h0l0,0h0l0,0h0l0,0h0l0,0h0l0,.07h0l-.13.2h0l0,.06h0v0l0,0h0l0,0h0v.06h0l0,0h0l0,0h0v0h0v0h0v0l0,0v0h0v0h0v.06l0,0v0h0v.08l0,0h0v0h0v0l0,0h0l0,0h0v0h0l-.09.15h0l0,0h0l0,0h0l0,0h0l0,0h0l0,0h0v0h0v0h0l0,0v0l0,0v0h0v0h0v0l0,0h0l0,0h0v0h0l0,0h0l0,0h0l0,0h0l0,0h0l0,0h0l-.27.46h0l-.06.11h0l0,0h0l0,0h0l0,0h0l0,0h0l0,0h0l0,0h0l0,0h0l0,0h0l0,0h0l0,0h0A113.08,113.08,0,0,0,123,187a6,6,0,0,0,11.18,4.38,100.21,100.21,0,0,1,21.66-33.57,6,6,0,0,0-4.3-10.18Zm-30.2,77.26h-.16a6,6,0,0,0-5.84,6.14c0,2.09.16,4.15.33,6.21h0v0h0v0h0v0h0v0h0v0h0v0h0v.05h0v0h0v0h0v0h0v0h0v.08h0v.08h0V238h0v.77h0v0h0v0h0v.08h0v0h0v0h0v0h0v0h0v0h0v0h0v0h0v0h0v.05h0v0h0l0,.27h0a112.21,112.21,0,0,0,9.45,34.93,6,6,0,0,0,5.47,3.52,6.1,6.1,0,0,0,2.48-.54,6,6,0,0,0,3-7.95,99.79,99.79,0,0,1-8.94-38.91,6,6,0,0,0-6-5.84Zm34.28,75.53a6,6,0,0,0-4.09,10.4,114,114,0,0,0,13.37,10.6h0l0,0h0l0,0h0l0,0h0l.59.4h0l0,0h0l0,0h0l0,0h0l0,0h0l0,0h0l0,0h0l0,0h0l0,0h0l0,0h0l0,0h0l0,0h0l0,0h0l0,0h0l0,0h0l0,0h0l0,0h0l0,0h0l0,0h0l.35.23h0l0,0h0l0,0h0l0,0h.05l0,0h0l0,0h0l0,0h0l0,0h0l0,0h0l0,0h0l0,0h0l0,0h.09l0,0h.08l0,0h0l0,0h0l.24.16h0l0,0h0l0,0h.08l0,0H168l0,0h.09l0,0h0l0,0h.09l0,0h.11l0,0h.09l0,0h.1l.06,0h0l.05,0h0l.07,0h0l0,0h0l0,0H169l0,0h.11l0,0h.11l0,0h.15l0,0h.11l0,0h0l0,0h.05l0,0h0l0,0h0l.11.07h0l0,0h.12l0,0h0l0,0h.09l0,0h0l0,0h.13l0,0h0l0,0h.14l0,0h.11l0,0h0l0,0h.1l0,0,0,0h0l0,0h0l0,0h.09l0,0h.21v0h.17l0,0h0l0,0h.18l0,0H172l0,0h0l0,0,.06,0h0l0,0h.11l0,0h0l0,0h.26l0,0h.28l0,0h.23l0,0,.05,0,0,0h.36l0,0h.44l0,0h0l0,0h0l0,0h.18l0,0h.16l0,0h0l0,0h0l0,0h0l0,0h0l0,0h0l0,0h0l0,0h0l0,0h0l0,0h.35l0,0h0l0,0h0l.37.2h0l.08,0h0l.07,0h0l0,0h0l0,0h0l0,0h0l0,0h0l0,0h0l0,0h0l0,0h0l0,0h0l0,0h0l0,0h0l0,0h.08A110,110,0,0,0,189.78,334a6,6,0,0,0,4.06-11.29A100.24,100.24,0,0,1,159.71,302a6,6,0,0,0-4.06-1.59Zm119,17.57a5.89,5.89,0,0,0-2.63.61,99.76,99.76,0,0,1-38.65,10,6,6,0,0,0,.31,12h.3a112.38,112.38,0,0,0,25.52-4.31h0a111.31,111.31,0,0,0,17.79-6.86A6,6,0,0,0,274.65,318Zm54.64-62.45a6,6,0,0,0-5.69,4.12,100,100,0,0,1-19.84,34.66,6,6,0,0,0,9,7.92c.86-1,1.7-2,2.53-3h0l0,0h0l0,0h0l.42-.51h0l0,0h0l0,0h0l0,0h0v0l0,0v0h0l0,0h0l0,0v0h0l0,0h0v0l0,0v0h0l0,0v0h0l0,0v0h0v0h0l0,0h0l0,0h0l0,0h0l0,0h0l0,0h0l0,0h0l0,0h0a112.25,112.25,0,0,0,15.7-26.69h0l0,0h0l0,0h0v0h0v0h0l0,0h0v0h0l0,0h0l0,0h0v0h0v0h0l0,0h0v0h0v0h0l0,0h0v0h0v0h0l0,0h0v0h0v0h0l0,0h0v0h0l0-.08v-.15h0v0h0v0h0v0h0v0h0v0h0l0,0h0v0h0v0h0v0h0v0h0l0,0h0v0h0v0h0l0,0h0v0h0l.05-.12h0v0h0q1.16-2.93,2.15-5.94a6,6,0,0,0-5.7-7.87Zm-6.63-82.7a6,6,0,0,0-5.32,8.78,99.3,99.3,0,0,1,11,38.36,6,6,0,0,0,6,5.53,3.85,3.85,0,0,0,.48,0,6,6,0,0,0,5.51-6.44,112.55,112.55,0,0,0-5.13-25.83h0c0-.11-.07-.22-.1-.33h0c0-.11-.07-.22-.11-.33h0l-.11-.33h0c0-.11-.07-.22-.11-.33h0c-.22-.65-.45-1.3-.68-2h0l-.06-.16h0l0-.12h0l0,0h0v0h0l0,0h0v0h0l0,0h0v0h0l0,0h0v0h0l0,0h0v0h0l0,0h0v0h0l0,0h0v0h0l0,0h0l0-.08h0v0h0l0,0h0l0-.08h0l-.06-.16h0A111.81,111.81,0,0,0,328,176a6,6,0,0,0-5.32-3.22Zm-63.87-53a6,6,0,0,0-1.73,11.75,99.86,99.86,0,0,1,35.17,18.9,6,6,0,1,0,7.66-9.23c-.26-.23-.53-.45-.8-.67h0l0,0h0l0,0h0l0,0h0l0,0h0l0,0h0l0,0h0l0,0h0l0,0h0l0,0h0l0,0h0l0,0h0l0,0h0l0,0h0l-.21-.16h0l0,0h0l0,0h0l0,0h0l0,0h-.05l0,0h0l0,0h-.05l0,0h0l0,0h0l0,0h0l0,0h0l0,0h0l0,0h0l0,0h0l0,0h0l0,0h0l0,0h0a112.36,112.36,0,0,0-24.24-14.63h0l0,0h-.08l0,0h-.13l0,0h-.13l0,0h-.57l-.06,0h0l0,0h0l0,0h-.21l0,0h0l0,0H272l0,0h-.13l0,0h-.09l0,0h-.09l0,0h0l0,0h0a111,111,0,0,0-11-3.94,6.15,6.15,0,0,0-1.73-.26Z" fill="#1b1948"/>
        <path d="M228,173h-5.31l-.18,0h-1.9l-.22,0h-.8l-.22,0h-.84l-.23,0h-.79l-.3.06h-.75l-.26.06h-.65l-.39.09h-.65l-.38.1h-.6l-.43.11h-.43l0,0h0l-.51.15h-.21l0,0h-.21l-.55.17h-.21l0,0h-.09l0,0h-.05L210,176h0l0,0h0l0,0h-.25l-.62.23h0l0,0h0l0,0h-.05l0,0h0l-.65.25h0l0,0H208l0,0h0l0,0h0l-.73.29h0l0,0h0l0,0h0l0,0h0l-.84.36h0l0,0h0l0,0h0l-.8.35h0l0,0h0l0,0h0l0,0h0l0,0h0l0,0h0q-.84.39-1.68.81h0l0,0h0l0,0h0l0,0h0a55.26,55.26,0,0,0-15.34,11.5,6,6,0,0,0,.28,8.48,6,6,0,0,0,8.48-.27A42.57,42.57,0,0,1,228,185a6,6,0,0,0,0-12ZM179.1,225.21h-.39a6,6,0,0,0-5.6,6.37,54.87,54.87,0,0,0,20,38.92,6,6,0,0,0,8.44-.82,6,6,0,0,0-.82-8.45,43.1,43.1,0,0,1-15.64-30.42,6,6,0,0,0-6-5.61Zm88.73,25.34a6,6,0,0,0-4.88,2.5,43.15,43.15,0,0,1-29.33,17.59,6,6,0,0,0,.76,11.95,6.64,6.64,0,0,0,.77,0,55,55,0,0,0,13.63-3.6h0l.7-.29h0l0,0h0l0,0h0l.76-.33h0c.49-.22,1-.44,1.44-.67h0l0,0h0c.5-.25,1-.49,1.49-.75h0c.49-.26,1-.52,1.46-.79h0a55.16,55.16,0,0,0,17.92-16,6,6,0,0,0-4.88-9.48Zm-13.95-70.16a6,6,0,0,0-3.18,11.09,43.15,43.15,0,0,1,19.48,28.13,6,6,0,0,0,5.88,4.83,5.93,5.93,0,0,0,1.17-.11,6,6,0,0,0,4.72-7,54.72,54.72,0,0,0-11.41-24.15h0l-.48-.57h0l0,0h0l0,0h0l-.4-.47h0l0,0h0l0,0h0l0,0h0l-.38-.43h0l0,0h0l0,0h0l0,0h0l0,0h0l0,0h0l0,0h0l-.05-.07h0l-.31-.33h0l0,0h0l0,0h0l0,0h0l0,0h0l0,0h0l0,0h0l-.36-.39h0l0,0h0l0,0h0l0,0h0l0,0h0l0,0h0l0,0h0l-.34-.35h0l0,0h0l0,0h0l0,0h0l0,0h0l0,0h0l0,0h0c-.13-.14-.26-.28-.4-.41h0l0,0h0l0,0h0l0,0h0l0,0h0l0,0h0l0,0h0l-.41-.4h0l-.05,0h0l-.06-.06h0l-1.08-1h0a55.11,55.11,0,0,0-8.18-6.22,6,6,0,0,0-3.16-.9Z" fill="#1b1948"/>
      </g>
    </g>
  </g>
</svg>
