<svg xmlns="http://www.w3.org/2000/svg" viewBox="0 0 455.93 455.97">
  <g id="Layer_2" data-name="Layer 2">
    <g id="Layer_1-2" data-name="Layer 1">
      <g>
        <path d="M228,0h-9.37l-.61,0H215.7l-1.23.06h-1.6l-1.94.14h0a228.45,228.45,0,0,0-27.65,3.75,6,6,0,1,0,2.34,11.77A218.16,218.16,0,0,1,228,12a6,6,0,0,0,0-12ZM142.61,17a6.06,6.06,0,0,0-2.31.46q-5.15,2.14-10.16,4.54h0l-.07,0h0l-.06,0h0l-.07,0h0l-.06,0h0l-.06,0h0l-.06,0h0l-.06,0h0l-.06,0h0l-.06,0,0,0,0,0h0l-.05,0h0l-.05,0h0l0,0h0l-.05,0,0,0,0,0h0l-.06,0h0l-.05,0h0l0,0,0,0,0,0,0,0-.05,0,0,0,0,0h0l-.05,0h0l0,0,0,0,0,0,0,0,0,0,0,0,0,0-.05,0h0l0,0h0l0,0,0,0,0,0,0,0,0,0h0l0,0h0l-.06,0h0l-.89.44h0l-.07,0h0l-.15.07h0l-.07,0h0c-.1.06-.2.1-.3.15h0L126,24h0l-.07,0h0l-.07,0h0l-.07,0h0l-.07,0h0l-.08,0h0l-.07,0h0l-.07,0h0l-.07,0h0l-.08,0h0l-.15.07h0l-.31.16h0l-.07,0h0l-.07,0h0l-.07,0h0l-.08,0h0l-.3.15h0q-5.44,2.8-10.73,5.87h0l-.07,0h0l-.07,0h0l-.14.08h0l-.07.05h0l-.07,0h0l-.29.17h0l-.3.17h0l-.22.13h0l-.07,0h0l-1.47.87h0l-.22.14h0l-.07,0h0l-.06,0h0l-.07,0h0l-.07,0h0l0,0h0l0,0h0l0,0h0l0,0,0,0,0,0,0,0,0,0,0,0,0,0h0l0,0,0,0,0,0,0,0,0,0,0,0,0,0h0l0,0,0,0,0,0,0,0,0,0,0,0,0,0h0l0,0,0,0,0,0,0,0,0,0,0,0,0,0,0,0,0,0,0,0,0,0,0,0,0,0,0,0,0,0,0,0-.05,0,0,0,0,0,0,0,0,0,0,0,0,0,0,0,0,0,0,0,0,0,0,0,0,0,0,0,0,0h0l0,0,0,0,0,0,0,0h0l-.06,0h0l0,0h0l-.29.19h0l-.14.09h0l-.14.09h0l-.07,0h0l-.07,0h0l-.06,0,0,0,0,0h0l0,0h0l0,0h0l-.06,0h0l-.06,0h0l-.07,0h0l-.07,0h0l-.06,0h0l0,0h0l-.06,0h0l-.06,0h0l-.06,0h0l-.06,0h0l-.06,0h0l-.06,0h0l-.06,0h0l0,0h0l-.06,0h0l-.06,0h0l-.07,0h0l-.06,0h0l-.29.19h0q-2.07,1.32-4.09,2.69a6,6,0,0,0,3.36,11,5.91,5.91,0,0,0,3.34-1,215.84,215.84,0,0,1,37.47-20.18A6,6,0,0,0,142.61,17ZM70.39,65.65a6,6,0,0,0-4.24,1.76,229.1,229.1,0,0,0-28.4,34.88,6,6,0,0,0,1.71,8.29,5.93,5.93,0,0,0,3.3,1,6,6,0,0,0,5-2.69,218.28,218.28,0,0,1,26.88-33,6,6,0,0,0-4.26-10.22Zm-48.06,72.6A6,6,0,0,0,16.78,142q-3.48,8.53-6.27,17.4h0l0,.07h0l0,.07v0l0,.06v0l0,.07h0l0,.07v0l0,.06v0l0,.06v0l0,0v.12l0,0v.08l0,.05v.08l0,0v.13l0,0v.08l0,.05v.11l0,.06v0l0,.06v0l0,.06v0l0,.06v0l0,.07v0l0,.06v0l0,.07h0l0,.07h0l0,.08h0l0,.08h0l0,.07h0l0,.08h0l0,.07h0l0,.08h0l0,.08h0a227.66,227.66,0,0,0-5.64,23,6,6,0,0,0,4.77,7,5.48,5.48,0,0,0,1.13.11,6,6,0,0,0,5.89-4.88,213.78,213.78,0,0,1,12.07-40.79,6,6,0,0,0-3.29-7.82,5.89,5.89,0,0,0-2.27-.45ZM6,223.77H6a6,6,0,0,0-5.95,6q.08,9,.82,17.73h0v.09h0v.18h0v.09h0V248h0v.18h0v.09h0v.09h0v.09h0v.09h0L1,249.78H1v2.5h0v.09l0,.27v2.78h0c0,.32.08.63.11.95h0v.08h0v.25h0V257h0v.08h0v1.21H2v.07H2l0,.17H2c.07.52.15,1,.22,1.55h0v.08h0v.08h0v.08h0v.16h0v.08h0v.08h0v.16h0v.16h0v.08h0c.11.77.23,1.55.35,2.32h0v.08h0l0,.08h0v.08h0v.08h0l0,.09h0V264h0l0,.25h0v.08h0v.09h0l0,.17h0c.13.86.28,1.71.43,2.57h0l0,.17h0l.06.34h0v.09h0c.14.8.29,1.59.43,2.39h0l0,.08h0l0,.09h0v.08h0l0,.08H4v.08H4l0,.09H4l0,.08H4c.17.91.35,1.82.53,2.72h0l0,.17h0l0,.08h0l0,.08h0l.05.25h0l0,.09h0l0,.08s0,0,0,0v.08h0l0,.08h0l0,.07h0a6,6,0,0,0,5.87,4.78,5.69,5.69,0,0,0,1.22-.13,6,6,0,0,0,4.66-7.09A217.09,217.09,0,0,1,12,229.73a6,6,0,0,0-6-6ZM23.69,309a6.1,6.1,0,0,0-2.35.48,6,6,0,0,0-3.17,7.88A227.83,227.83,0,0,0,39.8,356.75a6,6,0,0,0,5,2.61,5.93,5.93,0,0,0,3.39-1.06A6,6,0,0,0,49.69,350a216.43,216.43,0,0,1-20.48-37.3A6,6,0,0,0,23.69,309ZM72.9,380.84a6,6,0,0,0-4.2,10.29q2.82,2.75,5.73,5.41h0l.06,0h0l.06,0h0l.05,0h0l.05,0,0,0,0,0h0l0,.05h0l.06.05h0l.06.05v0l0,0h0l.06.05h0l0,.05h0l0,0,0,0,.05,0h0l0,0h0l.06,0h0l.06,0v0l.05,0h0l.06.05h0l0,.05h0l0,0,0,0,0,0h0l0,.05h0l.13.11h0l.38.34h0l.12.1h0l0,0,0,0,0,0,0,0,0,0,0,0,0,0,0,0,0,0,0,0,0,0,0,0,0,0h0l0,0,0,0,0,0,0,0,0,0,0,0,0,0,0,0,0,0,0,0,0,0,0,0,0,0,0,0,0,0,0,0,0,0,0,0,0,0,0,0,0,0,0,0,0,0,0,0,0,0,0,0,0,0,0,0,0,0,0,0,0,0,0,0,0,0,0,0,0,0,0,0,0,0,0,0,0,0,0,0,0,0,0,0h0l0,.05h0l0,.05h0l.06.05h0l.4.34h0l.07.06h0l0,0,0,0,.05,0h0l.05.05h0l0,0v0l.06,0h0l0,.05h0l0,0,0,0,0,0,0,0,0,0,0,0,0,0,0,0,0,0,0,0,0,0h0l0,0,0,0,0,0,0,0,0,0h0l.05,0,0,0,0,0,0,0,.05,0h0l0,.05h0l0,0h0l.06,0h0l.06.05h0l.05.05h0l.07.06h0l.06.05h0l.06.05h0l.74.62h0l.07.05h0l.06.06h0l.06.05h0l.07.06h0l.06.05h0l.06,0h0l.06.05h0l.07.05h0l0,.05h0l.06,0h0l.06.05h0l.05,0,0,0,0,0h0l.06.05h0l.06,0h0l0,.05h0l0,.05h0l.06.05h0l.06.05h0l.06.05h0l.07.05h0L84.3,405h0l.06,0h0l.06.05h0l.06.05h0l0,.05h0l.06.05h0l.06,0h0l.06.05h0l.06,0h0l0,0h0l.06,0h0l.06.05h0l.06.05h0l.06.05h0l0,0h0l0,.05h0l.06.05h0l.06.05h0l0,0h0l.06.05h0l.07.05h0l.07.05h0l.07.05h0l.82.65h0l.06,0h0l.06.05h0l.06.05h0l.06.05h0l.06,0h0l.07.05h0l.06,0h0l.06,0h0l.06.05h0l.06.05h0l.06.05h0l.06,0h0l.06,0v0l0,0,0,0,0,0h0l0,0,0,0,0,0h0l.05,0h0l.06.05h0l.06,0h0l.06,0v0l.06,0h0l.06,0h0l.06.05h0l.06.05h0l.06.05h0l.83.65h0l.07.05h0l.07.05h0l.06,0h0l.05.05h0l0,0h0l.05,0,0,0,0,0,0,0,0,0,0,0,0,0,0,0,0,0,0,0,0,0,0,0,0,0,0,0,0,0,0,0,0,0,0,0,0,0,0,0,0,0,0,0,0,0,0,0,0,0,0,0,0,0,0,0,0,0,0,0,0,0,0,0,.05,0,0,0,0,0h0l.05,0,0,0,.06,0h0l0,0h0l.06.05h0l.07.05h0l.42.32h0l0,0h0l.06,0,0,0,0,0h0l.05,0,0,0,0,0,0,0,0,0,0,0,0,0,0,0,0,0,0,0,0,0,0,0,0,0,0,0,0,0,0,0,0,0,0,0,0,0,0,0,0,0,0,0,0,0,0,0,0,0,0,0,0,0,0,0,0,0,0,0,0,0,0,0,0,0,0,0,0,0,0,0,0,0,0,0,0,0,0,0,0,0,0,0,0,0,0,0,0,0,0,0,0,0,0,0,0,0,0,0,0,0,0,0,0,0,0,0,0,0h0l0,0,.16.12h0l0,0,0,0,.06,0h0l.06,0h0l0,0,0,0,0,0h0l.06,0h0l0,0h0l0,0,0,0,0,0,0,0,0,0,0,0,0,0,0,0,0,0,0,0,0,0,0,0,0,0,0,0,0,0,0,0,0,0,0,0,0,0,0,0,0,0,0,0,0,0,0,0,0,0,0,0,0,0,0,0,0,0,0,0,.05,0,0,0,0,0,0,0,0,0,0,0,0,0,0,0,0,0,0,0,0,0,0,0,0,0,0,0,0,0,0,0,0,0,0,0,0,0,0,0,0,0h0l0,0h0l.13.09h0l.4.29h0l.06,0h0l0,0,0,0,0,0,0,0,0,0,0,0,0,0,0,0,0,0,0,0,0,0,0,0,0,0,0,0,.06,0h0l0,0,0,0,0,0h0l0,0h0l0,0h0l0,0h0l0,0h0l0,0h0l0,0,0,0,0,0,0,0,0,0,0,0,0,0,0,0,0,0,0,0,0,0,0,0,0,0h0l0,0h0l0,0h0l0,0h0l0,0h0l.06,0h0l.7.48h0l.07,0h0l.05,0h0l0,0h0l.05,0,0,0,0,0,0,0,0,0,0,0,0,0,0,0,0,0h0l.05,0h0l0,0,0,0,0,0,0,0,0,0,0,0,0,0,0,0,0,0,0,0,0,0,0,0,.05,0,0,0,0,0,0,0,0,0,0,0,0,0,0,0,0,0,0,0,.05,0h0l0,0,0,0,0,0,0,0,0,0,0,0,0,0h0l.06,0h0l0,0h0l.05,0,0,0,0,0h0l.06,0h0l.06,0h0l.07,0h0l.27.18h0l.13.08h0l.07,0h0l.06,0,0,0,.06,0h0l.06,0h0l0,0h0l0,0,0,0,0,0,0,0,.05,0h0l0,0,0,0,0,0,0,0,.05,0h0l0,0h0l.05,0,0,0,0,0,0,0,0,0,0,0,.05,0h0l0,0,0,0,.05,0,0,0,0,0h0l0,0a6,6,0,1,0,6.54-10.06,218,218,0,0,1-33.23-26.62,6,6,0,0,0-4.19-1.71Zm73,47.48a6,6,0,0,0-2.23,11.58q4.2,1.67,8.46,3.17l0,0,.12,0,.09,0h0a227.75,227.75,0,0,0,34.47,9.13,6.56,6.56,0,0,0,1.07.1A6,6,0,0,0,189,440.49a214.55,214.55,0,0,1-40.9-11.74,5.91,5.91,0,0,0-2.21-.43ZM275,439a6.1,6.1,0,0,0-1.27.14,217,217,0,0,1-42.3,4.82,6,6,0,0,0,.09,12h.1a228.62,228.62,0,0,0,44.64-5.09A6,6,0,0,0,275,439Zm79.79-34.77a6,6,0,0,0-3.43,1.08,215.39,215.39,0,0,1-37.14,20.78,6,6,0,0,0,4.8,11l1.61-.71h0l.07,0h0l.06,0,0,0,.05,0h0l0,0,0,0,0,0,0,0h0l0,0,0,0,0,0h0l.05,0h0l.05,0,0,0,.05,0h0l.05,0h0l.06,0h0l.06,0h0l.05,0,0,0,.05,0h0l.06,0h0l.06,0h0l.06,0h0l.06,0h0l.07,0h0l.07,0h0l.07,0h0l.07,0h0a227.59,227.59,0,0,0,28.35-15.46h0L351,420h0l.06,0h0l.06,0h0l.07,0h0l.06,0h0l.05,0,0,0,0,0,0,0,0,0,0,0,0,0,0,0,0,0,0,0,0,0,0,0,0,0,0,0,0,0,0,0,0,0,0,0h0l.05,0h0l.05,0,0,0,.05,0,0,0,0,0h0l.05,0h0l.05,0,0,0,0,0,0,0,.05,0h0l.05,0h0l0,0h0l.06,0h0l.06,0h0l.06,0h0l.06,0h0l.07,0h0l.22-.15h0q2.49-1.63,4.93-3.34a6,6,0,0,0-3.44-10.92Zm60.35-62.78a6,6,0,0,0-5.06,2.76,216.75,216.75,0,0,1-26.35,33.44,6,6,0,0,0,8.65,8.32c.94-1,1.86-2,2.77-2.94h0l.05-.06h0l0-.05h0l0-.06h0l0-.06h0l0,0h0l0-.06h0l.05,0h0l0-.06h0l0,0h0l0,0,0,0,0-.05h0l.05-.05v0l.05-.05h0l.05-.05v0l.05,0v0l0-.05h0l0-.05,0,0,0,0,0,0,.05-.06h0l.05-.05h0l.36-.39h0l.11-.13h0l0-.05,0,0,0,0,0,0,0,0,0,0,0,0,0,0,0,0,0,0,0,0,0,0,0,0,0,0,0,0,0,0,0,0,0,0,0,0,0,0,0,0,0,0,0,0,0,0,0,0,0,0,0,0,0,0,0,0,0,0,0,0,0,0,0,0,0,0,0,0,0,0,0,0,0,0,0,0,0,0v0l0,0,0,0,0-.05,0,0,0,0,0,0,0,0v0l0,0,0,0,0,0,0,0,0-.05h0l.05-.05h0l0-.06h0l0-.05v0c.19-.2.37-.42.56-.62h0l0-.07h0l.05-.05v0l.05-.05h0l0-.05h0l0-.06h0l.05-.05h0l0-.05,0,0,0-.05h0l.05-.05v0l.05-.05h0l0-.06h0l.05-.05h0l.05-.06h0l.05-.06h0l.05-.06h0l0-.06h0l0,0v0l0,0h0l0,0h0l0-.06h0l0-.05,0,0,0-.05,0,0,0,0h0l0-.06h0l0-.05h0l.05-.06h0c.18-.22.37-.43.55-.64h0l0-.05h0l0-.05,0,0,0-.05h0l.05-.06h0l0-.05,0,0,0,0v0l.05-.05v0l0,0,0,0,0,0,0,0,0,0,0,0,0,0v0l0-.05,0,0,0,0,0,0,0,0,0,0,0,0,0,0,0,0,0,0,0,0,0,0,0,0,0,0,0,0,0,0,0,0,0,0,0,0,0,0,0,0,0,0,0,0,0,0,0,0,0,0,0,0,0,0,0,0,0,0,0,0,0,0,0,0,0,0,0,0,0,0,0,0,0,0,0,0,0,0,0,0,.22-.27,0,0,0,0h0l0-.06h0l0-.05,0,0,0-.05,0,0,0-.05h0l0-.05,0,0,0,0,0,0,0,0,0,0,0,0v0l0-.05,0,0,0-.05v0l0,0,0,0,0,0v0L404,373v0l0-.05h0l.05-.05v0l0-.05v0l.05-.05v0l0-.05h0l0-.06h0l0-.06h0l.05-.06h0l.05-.06h0l.05-.06h0l.05-.06h0l.05-.06h0a228.83,228.83,0,0,0,15.58-21.5,6,6,0,0,0-5.05-9.23Zm31.54-81.13a6,6,0,0,0-5.9,5,215.7,215.7,0,0,1-11.42,41,6,6,0,0,0,3.42,7.76,5.92,5.92,0,0,0,2.17.41,6,6,0,0,0,5.6-3.82c.41-1.05.81-2.11,1.2-3.17h0l0-.07v0l0-.07h0l0-.07h0l0-.07h0l0-.07h0l0-.06v0l0-.05,0,0v0l0,0v0l0,0v0l0-.06v0l0-.06v0l0-.06v0l0-.06v0l0-.05v0l0-.06v0l0-.06h0l0-.07h0l0-.08h0a228.16,228.16,0,0,0,8.91-31.33h0l0-.08h0v-.09h0l0-.17h0l0-.09h0v-.08h0V274l0-.07v0l0-.07v-.28l0-.06v-1.29l0-.06V272h0l0-.08h0l0-.08h0v-.09h0l0-.08h0l0-.08h0c.27-1.39.52-2.79.77-4.19a6,6,0,0,0-4.88-6.94,6.18,6.18,0,0,0-1-.09Zm-2.06-87.07a5.92,5.92,0,0,0-1.31.15,6,6,0,0,0-4.55,7.17,216.65,216.65,0,0,1,5.16,42.25,6,6,0,0,0,6,5.86h.14a6,6,0,0,0,5.86-6.14A228.81,228.81,0,0,0,453,190.91h0l0-.17h0v-.08h0v-.08h0v-.08h0v-.08h0l0-.07v-2.15l0-.08h0v-.17h0l0-.17h0l0-.08v-.09h0l0-.16h0v-.08h0l0-.07v-.37l0-.07v-.09h0l0-.08h0v-.16h0l0-.08h0v-.08h0l0-.08h0v-.08h0V186h0l0-.08h0v-.08h0l0-.08h0l0-.08h0v-.09h0c-.48-2.55-1-5.08-1.57-7.6a6,6,0,0,0-5.85-4.68ZM409.21,93.74a5.93,5.93,0,0,0-3.46,1.11,6,6,0,0,0-1.43,8.36,216.07,216.07,0,0,1,21.08,37,6,6,0,0,0,11-4.87A228.55,228.55,0,0,0,414.1,96.26a6,6,0,0,0-4.89-2.52ZM346,33.9A6,6,0,0,0,342.76,45a217.07,217.07,0,0,1,33.65,26.08,6,6,0,1,0,8.25-8.71l-.23-.22h0l-.06-.05h0l-.06,0h0l-.05,0h0l-.05-.05h0l-.06,0h0l-.05-.05v0l-.05,0,0,0,0,0,0,0,0,0,0,0,0,0,0,0,0,0,0,0,0,0,0,0,0,0,0,0,0,0-.05,0,0,0-.06,0s0,0,0,0a229.64,229.64,0,0,0-34.29-26.38A6,6,0,0,0,346,33.9ZM264.57,3a6,6,0,0,0-1,11.92A215,215,0,0,1,304.67,26a5.91,5.91,0,0,0,2.13.4,6,6,0,0,0,2.13-11.61,225.71,225.71,0,0,0-26.28-8.2h0l-.08,0h0l-.08,0h0l-.07,0h0l-.07,0h0l-.07,0h-.46l-.06,0H281l-.07,0h0l-.09,0h0l-.08,0h0q-7.51-1.78-15.23-3.06a5.29,5.29,0,0,0-1-.08Z" fill="#ff7a00"/>
        <path d="M228,57.67H201.74l-.17,0h-.1l-.16,0h-.18l-.08,0h-.18l-.08,0h-.18l-.16,0h0l-.06,0h0l-.16,0h-.1l-.16,0h-.09l-.08,0h-.26l-.17,0h-.09l-.17,0h0l-.07,0h0l-.25,0h0l-.25,0h0l-.26,0h0q-7.47,1.32-14.7,3.27a6,6,0,1,0,3.12,11.59A158.76,158.76,0,0,1,228,69.67a6,6,0,0,0,0-12ZM145.14,80a6,6,0,0,0-3,.82c-2.3,1.35-4.57,2.74-6.81,4.2h0l-.21.14h0l-.38.24h0l-.21.14h0l-.37.25h0l-.21.14h0l-.21.14h0l-.15.1h0l-.05,0h0l-.15.1h0l-.16.1h0l-.05,0h0l-.15.1h0l-.05,0h0l-.14.1h0l-.2.14h0l-.15.1h0l0,0h0l-.15.1h0l-.2.14h0l-.15.1h0l-.05,0h0l-.15.1h0l-.05,0h0l-.15.1h0l-.15.1h0l0,0h0l-.09.06h0l0,0v0l0,0h0l-.1.07h0l0,0h0l-.14.1h0l0,0h0l-.13.1h0l0,0h0l-.1.06h0l-.05,0v0l-.05,0h0l-.09.06h0l0,0,0,0-.13.09h0l0,0,0,0-.07,0h0l0,0h0l0,0,0,0-.07.05h0l0,0,0,0-.06,0,0,0,0,0,0,0,0,0,0,0-.08,0h0l0,0h0l0,0h0l-.07,0,0,0,0,0h0l-.12.1h0l0,0,0,0-.06,0,0,0,0,0h0l0,0,0,0-.06,0,0,0,0,0,0,0-.12.09,0,0,0,0,0,0-.08.06h0l0,0,0,0,0,0,0,0-.06,0,0,0,0,0,0,0,0,0-.06,0,0,0,0,0,0,0,0,0-.06,0,0,0,0,0,0,0,0,0,0,0-.06,0,0,0,0,0,0,0,0,0,0,0,0,0,0,0,0,0,0,0,0,0-.05,0,0,0,0,0,0,0,0,0,0,0,0,0,0,0,0,0,0,0-.05,0,0,0,0,0,0,0,0,0,0,0,0,0,0,0,0,0,0,0,0,0,0,0-.05,0,0,0,0,0,0,0-.06,0,0,0,0,0,0,0,0,0,0,0,0,0,0,0,0,0,0,0,0,0,0,0,0,0,0,0,0,0,0,0-.06,0h0l0,0,0,0,0,0,0,0,0,0,0,0,0,0,0,0,0,0,0,0,0,0,0,0,0,0,0,0-.06,0h0l0,0,0,0,0,0h0l-.05,0,0,0,0,0,0,0-.06,0h0l-.06.05h0l-.05,0h0l-.06.05h0l0,0,0,0,0,0h0l-.06,0,0,0,0,0,0,0,0,0,0,0,0,0,0,0,0,0,0,0-.06,0h0l0,0h0l0,0h0l-.06,0,0,0,0,0h0l-.05,0h0l-.06.05h0l-.05,0h0l-.06.05h0l-.05,0,0,0,0,0h0l-.06,0,0,0,0,0v0l-.06,0h0l-.06,0,0,0,0,0,0,0-.06,0h0l0,0h0l0,0h0l-.07,0h0l0,0h0l-.12.1h0l-.06,0h0l-.13.1h0l-.06,0h0l-.07.06h0l0,0h0l-.13.1h0l-.06,0h0l-.13.1h0l-.06.05h0l-.07.06h0l-.06.05h0l-.13.11h0l-.06,0h0l-.14.11h0l-.07.05h0l-.06.06h0l-.06,0h0l-.13.1h0l-.07.05h0l-.13.11h0l-.19.17h0l-.2.16h0l-.54.44h0a170,170,0,0,0-12.67,11.62,6,6,0,0,0,8.54,8.43,159,159,0,0,1,32.94-25.62,6,6,0,0,0-3-11.18ZM84.88,141.17a6,6,0,0,0-5.22,3v0l0,.05,0,0,0,0,0,0,0,0,0,0,0,0v0l0,0v0l0,.06,0,0,0,0v0l0,0v0l0,.06v0l0,.05,0,0,0,0,0,0,0,.06,0,0,0,.05v0l0,0v0l0,.07v0l0,0v0l0,.05v0l0,.07,0,0,0,.05,0,0,0,.05v0l0,.06v0l0,.06h0l0,.07h0l0,.06v0l0,0v0l0,.07v0l0,0v0l0,.05v0l0,.07h0l0,.06v0l0,.05v0l0,.06v0l0,.05v0l0,.06h0l0,.07v0l0,.05v0l0,.06h0l0,.07v0l0,0v0l0,.07h0l0,.06,0,0,0,.05v0l0,.07h0l0,.06v0l0,.06h0l0,.07h0l0,.06v0l0,.05v0l0,.07v0l0,.05v0l0,.06h0l0,.07v0l0,.05v0l0,.06h0l0,.07v0l0,0v0l-.07.14v0l0,.05v0l0,.07h0l0,.06v0l0,.05v0l0,.07v0l0,0,0,0,0,0v0l0,.07v0l0,.05,0,0,0,.06h0l0,.07v0l0,.05v0l0,.07h0l0,.07v0l0,0v0l0,.07h0l0,.06v0l0,.05v0l0,.06v0l0,.05v0l0,0v0l0,.06v0l0,.06h0l0,.07h0l0,.07h0l0,.06v0l0,.06h0l0,.07v0l0,0v0l0,.06h0l0,.07v0l0,.05v0l-.07.14v0l0,.06h0l0,.08h0l0,.06v0l0,.05,0,0,0,.07h0l0,.06v0l0,.06h0l0,.07v0l0,.05v0l0,.06h0l0,.07v0l0,.06v0l-.07.14h0l0,.06v0l-.07.14v0l0,0v0l0,.07h0l0,.06v0l0,0v0l0,.07h0l0,.06v0l0,.06h0l0,.07h0l0,.06v0l0,.06h0l0,.07v0l0,.06v0l0,.06h0l0,.07v0l0,.05v0l-.07.14v0l0,.06v0l0,.07h0l0,.07v0l0,.05v0l0,.07h0l0,.06v0l0,.06v0l0,.07h0l0,.06v0l0,.06h0l0,.07v0l0,.06h0l0,.07h0l0,.07v0l0,.05v0l0,.07h0l0,.07v0l0,.06v0l0,.07h0l0,.06v0l0,.06h0l0,.07v0l0,.06v0l0,.06h0l0,.07h0l0,.06v0l0,.07h0l0,.08h0l0,.06v0l0,.06h0l0,.07v0l0,.06v0l-.07.14v0l0,.05v0l0,.08h0l0,.07v0l0,.06h0l0,.07h0l0,.07h0l0,.07h0l0,.07h0l0,.06v0l0,.07h0l0,.08h0l0,.06v0l-.07.15h0l0,.06v0l-.07.14v0l0,.06v0l-.06.14v0l0,.06h0l0,.08h0l0,.07v0l0,.06h0l0,.08h0l0,.06v0l0,.06h0l0,.08h0l0,.06v0l0,.06h0l0,.07v0l0,0v0l0,.07h0l0,.07v0l0,.06v0l0,.07h0l0,.07v0l0,.06h0l0,.08h0l0,.07v0l0,.06h0l0,.08h0l0,.06v0l0,.06h0l0,.08h0l0,.06v0l0,.07h0l0,.08h0l0,.07h0l-.07.15h0l0,.07h0l-.06.15v0l0,.06h0l0,.08h0l0,.07v0l0,.06h0l0,.08h0l0,.07v0l0,.07h0l0,.08h0l0,.07h0l0,.07h0l0,.08h0l0,.07h0l-.06.15v0l0,.06h0l-.06.15v0l0,.06h0l-.06.16h0l0,.07h0l0,.08h0l0,.07h0l0,.07h0l0,.07h0l0,.07v0l-.06.15h0l0,.06v0l-.06.15h0l0,.07h0l-.06.15v0l0,.06h0l0,.08h0l0,.07v0l0,.06v0l0,.07h0l0,.06v0l0,.05v0l0,.07v0l0,.06v0l0,.06h0l0,.08h0l0,.06v0l0,.07h0l0,.07v0l0,.06v0l0,.07h0l0,.08h0l0,.06v0l0,.08h0l0,.07v0l0,.06h0l0,.08h0l0,.08h0l0,.07h0l0,.07h0l0,.07v0l-.06.15h0l0,.06v0l-.06.15v0l0,.06v0l-.06.15h0l0,.07h0l0,.08h0l0,.07v0l0,.06v0l0,.07h0l0,.07v0l0,.06h0l0,.08h0l0,.06v0l0,.07h0l0,.07h0l0,.07h0l-.06.16h0l0,.07h0l-.06.15v0l0,.06v0l-.05.15v0l0,.06h0l0,.08h0l0,.07h0l0,.07h0l0,.08h0l0,.07v0l0,.07h0l0,.08v0l0,.06v0l0,.15h0l0,.07h0l0,.16h0l0,.07h0l0,.15v0l0,.06v0l0,.07h0l0,.07v0l0,.07h0l0,.08h0l0,.07h0l0,.08h0l0,.08h0l0,.07h0l-.06.16h0l0,.07h0l0,.16h0l0,.07h0l-.05.15v0l0,.06v0l0,.08h0l0,.07v0l0,.07h0l0,.08h0l0,.07h0l-.06.16h0l0,.07h0l-.06.16h0l0,.07h0l0,.16h0l0,.07h0l-.06.16h0l0,.07h0l-.05.16h0l0,.08h0l0,.08h0l0,.08h0l-.06.16h0l0,.08h0l0,.16h0l-.08.24h0l0,.07h0l0,.16h0l-.08.24h0l0,.08h0l0,.16h0l-.06.16h0l0,.08h0l0,.17h0l0,.08h0l0,.15v0l0,.07h0l0,.16h0l0,.08h0l-.06.16h0l-.08.24h0l-.08.25h0l-.05.17h0l0,.08h0l-.05.17h0l0,.08h0l0,.16h0c-.1.34-.21.68-.31,1h0l-.21.67h0l-.08.26h0c-.72,2.4-1.4,4.83-2,7.27a6,6,0,0,0,4.33,7.3,5.91,5.91,0,0,0,1.49.19,6,6,0,0,0,5.81-4.52A157.07,157.07,0,0,1,90.1,150.13a6,6,0,0,0-5.22-9Zm-21.2,83.16h-.09a6,6,0,0,0-5.91,6.06,170.47,170.47,0,0,0,6.49,44.43,6,6,0,0,0,5.77,4.34,5.92,5.92,0,0,0,1.65-.23,6,6,0,0,0,4.12-7.41,158.37,158.37,0,0,1-6-41.27,6,6,0,0,0-6-5.92Zm23.54,82.51a5.94,5.94,0,0,0-3.1.87,6,6,0,0,0-2,8.23q1.14,1.86,2.31,3.71h0l.1.15h0l0,.05h0l.1.16h0l.13.2v0l.09.15h0l0,.05h0l.1.15h0l0,.05h0l.07.11h0l0,.05h0l.1.15h0l0,0v0l.09.14,0,0,0,0h0l.06.09h0l0,0v0l.09.14v0l0,0v0l0,.07v0l0,0,0,0,0,0,0,0,0,.06,0,0,0,0,0,0,0,0,0,.05,0,0,0,0,0,0,0,0,0,0,0,.05v0l0,0,0,0,0,0,0,0,0,0,0,0,0,0v0l0,.06,0,0,0,0v0l0,0,0,0,0,.06,0,0,0,0,0,0,0,.05,0,0,0,.05v0l0,0v0l.05.06h0l0,.06,0,0,0,.05h0l0,.07,0,0,0,0v0l0,.06h0l0,.06v0l0,.05v0l0,.06v0l0,.05v0l0,.05v0l0,.06h0l0,.06v0l0,.05h0l0,.07h0l0,.05v0l0,.07h0l0,.06v0l0,0v0l0,.06h0l0,.06h0l.09.14h0l0,.06h0l0,.07h0l0,.06v0l0,.06h0l0,.07h0l0,.06h0l.09.14h0l0,.06h0l.09.14h0l.1.14h0l0,.07h0l.1.13h0l0,.07h0l.1.14h0l.15.22h0l.25.35h0A171.54,171.54,0,0,0,110.13,351a6,6,0,1,0,8.31-8.66,158.61,158.61,0,0,1-26.08-32.57,6,6,0,0,0-5.14-2.9Zm62,59.41a6,6,0,0,0-2.89,11.26h.05l.15.09h0l0,0h0l0,0h0l.07,0,0,0,0,0,0,0,0,0,.06,0,0,0h0l0,0,0,0,0,0,.06,0,0,0,.05,0h0l0,0h0l.07,0h0l0,0,0,0,.06,0h0l.07,0h0l.05,0h0l.07,0h0l.07,0h0l0,0h0l.07,0h0l.07,0h0l.07,0h0l.08,0h0l.07,0h0l.15.08h0l.07,0h0l.15.08h0l.07,0h0l.15.08h0l.08,0h0a169.22,169.22,0,0,0,33.15,13.14h0l.25.07h0l.17,0h0l.08,0h0l.16,0h0l.08,0h0l.17,0h0l.07,0h0l.16,0h0l.08,0h0l.16,0h0l.08,0h0l.17,0h0l.08,0h0l.08,0h0l.07,0h0l.08,0h0l.08,0h0l.07,0h0l.17,0h.09l.16,0h0l.08,0h0l.16.05h0l.08,0h0l.17,0h0l.08,0h0l.09,0h0l.08,0h0l.08,0h0l.08,0h0l.07,0h0l.08,0h0l.08,0h0l.07,0h0l.16,0h0l.07,0h0l.16,0h0l.07,0h0l.16,0h0l.07,0h0l.08,0h0l.07,0h0l.07,0h0l.08,0h.18l.08,0h0l.07,0h0l.07,0h0l.08,0h0l.07,0h0l.08,0h0l.08,0h.18a5.64,5.64,0,0,0,1.4.17A6,6,0,0,0,191,382a156.84,156.84,0,0,1-38.89-15,6,6,0,0,0-2.88-.73ZM275.39,379.4a6.08,6.08,0,0,0-1.73.25,158.46,158.46,0,0,1-41.18,6.62,6,6,0,0,0,.16,12h.17a169.91,169.91,0,0,0,44.3-7.13,6,6,0,0,0-1.72-11.74ZM348.23,334a6,6,0,0,0-4.39,1.91,159.19,159.19,0,0,1-32.2,26.53,6,6,0,0,0,3.18,11.09,5.93,5.93,0,0,0,3.17-.91h0l.13-.09h0l.05,0h0l.07,0h0l.05,0,0,0,.06,0h0l.07,0h0l0,0,0,0,.06,0h0l.06,0h0l.05,0,0,0,.06,0h0l.05,0h0l0,0,0,0,.06,0h0l0,0,0,0,0,0h0l.05,0h0l0,0,0,0,.06,0,0,0,0,0h0l0,0,0,0,.06,0h0l0,0h0l0,0,0,0,.05,0h0l0,0,0,0,.05,0,0,0,0,0,0,0,0,0,0,0,.06,0,0,0h0l0,0h0l.07-.05,0,0,0,0,0,0,0,0,0,0,.06,0,0,0,0,0,0,0,.06,0,0,0,0,0,0,0,0,0,0,0,.07,0,0,0,0,0,0,0,0,0h0l.07-.05h0l0,0h0l.14-.09h0l0,0h0l.08-.06h0l.05,0,0,0,0,0h0l.08-.06h0l0,0h0l.14-.09h0l0,0h0l.09-.06h0l.05,0v0l.05,0h0l.08-.06h0l0,0h0l.15-.09h0l.05,0h0l.15-.1h0l.14-.09h0l.05,0h0l.14-.1h0l0,0h0l.1-.07h0l.05,0h0l.15-.1h0l0,0h0l.15-.11h0l.2-.14h0l.15-.1h0l0,0h0l.15-.11h0l.05,0h0l.15-.11h0l.21-.15h0L325,368h0l.2-.14h0l.2-.14h0l.36-.26h0l.15-.11h0l0,0h0l.14-.1h0l.05,0h0l.15-.11h0l.15-.1h0l0,0h0l.14-.1h0l0,0h0l.15-.11h0l.2-.14h0l.15-.11h0l.2-.15h0l.2-.14h0l.14-.1h0l.05,0h0l.15-.1h0l0,0h0l.09-.06h0l0,0h0l.14-.1h0l0,0h0l.14-.11h0l0,0h0l.1-.07h0l0,0h0l.13-.1h0l0,0,0,0,.07,0h0l0,0,0,0,0,0h0l.08-.05,0,0,0,0h0l0,0h0l.09-.07h0l0,0h0l.08-.06h0l0,0,0,0,0,0,0,0,.06,0,0,0,0,0,0,0,0,0,.05,0,0,0,0,0,0,0,0,0,0,0,0,0,0,0,0,0,0,0,0,0,.06,0,0,0,0,0,0,0,0,0,.05,0,0,0,0,0,0,0,0,0,0,0,.05,0,0,0,0,0,0,0,0,0,0,0,0,0,0,0,0,0,0,0,.06,0,0,0,0,0,0,0,0,0h0l.05-.05,0,0,0,0h0l.05,0,0,0,0,0,0,0,0,0,0,0,.05-.05,0,0,0,0,0,0,0,0,0,0,.06-.05,0,0,0,0,0,0,0,0,0,0,0,0,0,0,0,0h0l.06-.05h0l0,0,0,0,0,0h0l.06,0h0l0,0h0l.05-.05h0l.05,0h0l.05,0h0l.06-.05h0l.05,0,0,0,.05,0h0l.06,0h0l.05,0h0l.13-.1h0l.06,0h0l.06-.05h0l0-.05h0l.06,0h0l.07,0h0l.05,0h0l.13-.1h0l.06-.05h0l.06-.06h0l.05,0,0,0,.06,0h0l.07,0h0l0-.05h0l.13-.1h0l.06,0h0l.13-.11h0l.19-.16h0l.13-.1s0,0,0,0l.07-.05h0l.13-.11h0l.2-.17h0l.34-.27h0a169.82,169.82,0,0,0,16.9-15.83A6,6,0,0,0,348.23,334Zm40.1-75.87a6,6,0,0,0-5.85,4.69A157.17,157.17,0,0,1,368,301.94a6,6,0,0,0,2.49,8.11,5.94,5.94,0,0,0,2.81.7,6,6,0,0,0,5.3-3.18,168.82,168.82,0,0,0,15.55-42.11,6,6,0,0,0-5.86-7.31Zm-3.62-85.77a6,6,0,0,0-5.72,7.81,158.51,158.51,0,0,1,7.2,41.08,6,6,0,0,0,6,5.75h.25a6,6,0,0,0,5.75-6.24c-.09-2-.2-3.93-.35-5.88h0v-.06h0v-.19h0v-.06h0v-.19h0v-.06h0v-.19h0V214h0V212l0-.16v-.27h0v-.17h0v-.09h0v-.17h0v-.08h0V211h0v-.08h0l0-.17v-.1h0l0-.17h0v-.08h0l0-.18h0v-.09h0v-.17h0v-.08h0l0-.27h0l0-.26h0a171.37,171.37,0,0,0-3.13-18.82h0l-.06-.25h0l-.06-.25h0l0-.08h0l0-.17h0l0-.08h0l0-.16h0v-.08h0l0-.17h0v-.07h0l0-.16h0v-.16h0l0-.08v-.18h0l0-.08h0V188l0-.08v-.18l0-.07v0l0-.06v-.1l0-.07v0l0-.06v0l0,0v0l0,0v0l0-.06v-.44l0-.07v-.19l0-.07v-.21l0-.08v-.17l0-.09v-.1l0,0v0l0-.09v-.16l0-.11h0v-.07l0,0v0l0-.17v-.07h0l0-.17v-.08h0l-.05-.18h0l0-.06h0l-.05-.18h0l0-.06h0l-.06-.25h0q-1-3.68-2.13-7.28a6,6,0,0,0-5.71-4.18ZM338.3,100.19a6,6,0,0,0-4,10.44,159.45,159.45,0,0,1,27,31.83A6,6,0,0,0,371.35,136c-1.59-2.48-3.25-4.9-5-7.29h0l-.1-.14h0l-.15-.21h0l-.1-.14h0l0-.07h0l-.1-.13h0l0-.07h0l-.05-.07h0l0-.07h0l-.1-.14h0l0-.06h0l-.09-.13h0l0-.06h0l-.05-.07h0l0,0v0l0-.06h0l-.05-.07h0l0-.05,0,0-.09-.13h0l0-.06h0l-.05-.06v0l0-.05,0,0,0,0h0l0-.06v0l0,0h0l0-.07h0l0-.06v0l0-.05h0l-.05-.07h0l0-.05v0l0,0h0l0-.07h0l0,0,0,0,0-.06h0l0,0,0,0,0,0v0l0-.06,0,0,0,0v0l0,0v0l-.05-.06v0l0,0,0,0-.05-.06h0l0,0,0,0,0,0,0,0,0-.06,0,0,0,0,0,0,0,0,0,0,0-.06,0,0,0,0,0,0,0,0,0,0,0,0,0,0,0,0,0,0,0-.06,0,0,0,0,0,0,0,0,0,0,0,0,0,0,0,0,0,0,0,0,0,0,0,0,0,0,0,0,0,0,0,0,0,0,0,0,0,0,0,0,0,0,0,0,0,0,0,0,0,0,0,0,0,0,0,0,0,0,0,0,0,0,0,0-.05,0,0,0,0,0,0,0,0,0,0,0,0,0,0,0,0,0,0,0,0-.05,0,0,0,0,0,0,0,0,0,0,0,0,0,0,0,0,0,0,0,0,0,0,0,0,0,0,0,0,0,0,0-.06,0,0,0,0,0,0-.1-.12v0l0,0,0,0-.05-.06,0,0,0,0,0,0,0,0,0,0,0-.07,0,0,0,0,0,0,0,0v0l-.05-.07,0,0,0,0,0,0-.06-.07h0l0,0,0,0,0,0,0,0-.05-.06,0,0,0,0,0,0,0,0v0l-.06-.07v0l0,0,0,0-.05-.06,0,0,0,0,0,0,0,0,0,0-.06-.06v0l0,0,0,0,0,0h0l-.07-.09,0,0,0,0v0l-.05-.07,0,0,0,0,0,0,0,0v0l-.06-.07,0,0,0,0v0l0,0h0l-.06-.08,0,0,0,0,0,0-.05-.06,0,0,0,0,0,0,0,0,0,0,0,0,0,0,0,0,0,0,0,0,0,0-.05-.06,0,0,0,0,0,0,0,0,0,0,0,0,0,0,0,0,0,0-.05-.06,0,0,0,0,0,0,0,0h0l-.07-.08,0,0,0,0,0,0-.05-.06,0,0,0,0v0l0,0,0,0-.05-.06,0,0,0,0,0,0,0,0h0l-.06-.07,0,0,0,0,0,0-.05-.07h0l0,0,0,0,0,0h0l-.06-.07v0l0,0,0,0,0,0h0l-.08-.09v0l0,0,0,0-.06-.08h0l0,0,0,0,0,0,0,0-.06-.07h0l0,0,0,0,0,0h0l-.06-.07,0,0,0,0,0,0-.06-.07h0l0,0,0,0,0,0h0l-.06-.07,0,0,0,0,0,0,0,0h0l-.06-.07,0,0,0,0,0,0,0,0,0,0,0,0,0,0,0,0,0,0,0,0,0,0,0,0,0,0,0,0,0,0,0,0,0,0,0,0,0,0,0,0,0,0,0,0,0,0,0,0,0,0,0,0,0,0,0,0,0,0,0,0,0,0,0,0,0,0,0,0,0,0,0-.05,0,0,0,0,0,0,0,0,0,0,0,0,0,0,0,0,0,0,0,0,0,0,0,0,0,0,0,0,0,0,0,0,0,0,0,0,0,0,0,0,0,0,0,0,0,0,0,0,0,0,0,0,0,0,0,0,0,0,0,0,0,0,0,0-.05,0,0,0,0,0,0,0,0,0,0,0,0,0,0,0,0,0,0,0,0-.06,0,0,0,0,0,0,0,0,0,0,0-.05v0l0,0,0,0-.05-.06h0l-.05-.06,0,0,0,0,0,0-.05,0,0,0,0,0v0l0,0,0,0-.05-.06h0l0,0,0,0-.1-.12h0l0-.05h0l-.06-.06v0l0,0,0,0,0,0v0l0,0,0,0,0,0v0l0-.06h0l-.05-.06h0l-.05,0h0l-.05-.06h0l-.05,0h0l0,0h0l-.05-.06h0l0,0,0,0-.05,0h0l-.06-.06v0l0,0,0,0-.05,0v0l0,0,0,0-.05,0h0l-.06-.06h0l0-.05h0l-.1-.12h0l0,0h0l-.06-.06h0l0,0h0l0,0h0l-.06-.06h0l0,0h0l-.11-.12h0l-.05,0h0l-.06-.06h0l-.06,0h0l-.05-.06h0l-.06-.06h0l-.06,0h0l-.11-.12h0l-.05-.06h0l-.12-.12h0l-.18-.18h0l-.12-.12h0l-.18-.19h0l-.18-.18h0l-.12-.13h0l-.06-.06h0l-.12-.13h0l-.18-.19h0q-3.8-3.9-7.83-7.56a6,6,0,0,0-4-1.55Zm-76.43-39A6,6,0,0,0,260.65,73,157.74,157.74,0,0,1,300,86.92a6,6,0,1,0,5.46-10.68c-3.66-1.87-7.4-3.62-11.2-5.22h0l-.24-.11h0l-.23-.1h0l-.16-.06h0l-.07,0h0l-.16-.07h0l-.07,0h0l-.16-.06h0l-.06,0h0l-.15-.06h0l-.06,0h0l-.08,0h0l-.07,0h0l-.06,0h0l-.08,0h0l-.07,0h0l-.06,0h0l-.08,0h0l-.06,0h0l-.06,0h0l-.07,0h0l-.07,0h0l-.05,0h0l-.07,0h0l-.06,0h0l-.06,0h0l-.07,0h0l-.05,0h0l-.06,0h0l-.08,0h0l-.05,0h0l-.07,0h0l-.07,0h0l0,0h0l-.06,0h0l-.05,0h0l0,0h0l-.07,0h0l-.05,0h0l-.05,0h0l-.07,0h0l-.05,0h-.07l0,0-.07,0h0l0,0h0l0,0h0l-.07,0h0l0,0h-.08l0,0,0,0h0l0,0h0l0,0-.05,0,0,0h-.08l0,0h0l-.06,0h-.08l0,0h0l0,0-.06,0h0l0,0h0l0,0h0l-.07,0,0,0h-.07l0,0-.06,0,0,0h-.08l0,0h-.07l-.08,0h0l-.05,0h0l-.09,0h-.09l0,0h0l-.08,0h-.07l0,0h-.07l-.09,0h0l0,0h-.09l-.09,0h0l-.05,0h-.09l-.08,0h0l0,0h-.09l-.09,0h0l-.05,0h-.07l0,0-.07,0h0l0,0h0l-.16-.06h0l-.05,0h0l-.16,0h0l-.05,0h0l-.16-.06h0l-.05,0h0l-.16-.06h0l-.05,0h0l-.17-.06h0l-.24-.09h0l-.17-.06h0l0,0h0l-.16-.06h0l0,0h0l-.17-.06h0l-.06,0h0l-.17-.06h0l-.05,0h0l-.18-.06h0l-.05,0h0l-.17-.06h0l-.06,0h0l-.18-.06h0l-.23-.08h0l-.23-.08h0l-.16-.06h0l-.05,0h0l-.17,0h0l-.06,0h0l-.18-.06h0l-.06,0h0l-.17-.06h0l-.06,0h0l-.17,0h-.07l-.18-.06h0l-.05,0h0l-.18-.06h0l-.24-.08h0l-.18-.06h0l-.05,0h0l-.17-.06h0l-.05,0h0l-.18-.06h0l-.05,0h0l-.18-.06h0l-.06,0h0l-.18-.06h0l-.25-.08h0l-.25-.08h0l-.24-.08h0l-.23-.07h0l-.17,0h-.08l-.18,0h0l-.06,0h0l-.25-.08h0l-.19-.06h0l-.06,0h0l-1.19-.35h0l-.95-.28h0l-.5-.15h0l-.5-.14h0q-5.69-1.62-11.52-2.84a5.71,5.71,0,0,0-1.23-.13Z" fill="#ff7a00"/>
        <path d="M228,115.33h-5.48l-.31,0h0l-.53,0h-.54l-.54,0h0a113.15,113.15,0,0,0-20.74,3.31h-.09l-.08,0h0l-.17,0h-.25l-.09,0h-3.77l0,0h-.13l0,0h0l-.17,0h0a112.85,112.85,0,0,0-10.84,3.93,6,6,0,0,0,4.67,11.06,100,100,0,0,1,39.15-7.9,6,6,0,0,0,0-12Zm-76.42,32.26a6,6,0,0,0-4.3,1.81,113.46,113.46,0,0,0-16.88,22.28h0A113.1,113.1,0,0,0,123,187a6,6,0,0,0,11.18,4.38,100.21,100.21,0,0,1,21.66-33.57,6,6,0,0,0-4.3-10.18Zm-30.2,77.26h-.16a6,6,0,0,0-5.84,6.14c0,2.27.18,4.52.37,6.75h0l0,.18h0v0h0v0h0v0h0v0h0v0h0v0h0v0h0v0h0v0h0v0h0v0h0v0h0v0h0v0h0v0h0v0h0v0h0v0h0v0h0v.08h0v0h0v0h0V239h0v.21h0v.28h0v.17h0v.08h0v.08h0v0h0V240h0v0h0v0h0v0h0v0h0v0h0v0h0v0h0v0h0v0h0v0h0v0h0v0h0v0h0v0h0v0h0v0h0v0h0a2.51,2.51,0,0,0,0,.27h0a112,112,0,0,0,9.29,33.51,6,6,0,0,0,5.47,3.52,6.1,6.1,0,0,0,2.48-.54,6,6,0,0,0,3-7.95,99.79,99.79,0,0,1-8.94-38.91,6,6,0,0,0-6-5.84Zm34.28,75.53a6,6,0,0,0-4.08,10.41A112.68,112.68,0,0,0,187,333h0l0,0h0l.16.06h0l0,0h0l0,0h.05l0,0h0l.08,0h.05l.27.1h.76l1.21.45a6,6,0,1,0,4.07-11.29A100.24,100.24,0,0,1,159.71,302a6,6,0,0,0-4.06-1.59Zm119,17.57a5.89,5.89,0,0,0-2.63.61,99.76,99.76,0,0,1-38.65,10,6,6,0,0,0,.31,12h.3a112.08,112.08,0,0,0,43.31-11.17A6,6,0,0,0,274.65,318Zm54.64-62.45a6,6,0,0,0-5.69,4.12,100,100,0,0,1-19.84,34.66,6,6,0,0,0,9,7.92q2.91-3.31,5.54-6.85h0l0,0h0l0,0h0l0,0h0l0,0v0l0,0h0v0l0,0h0v0h0l0,0h0v0h0v-.06h0v0h0l0,0v0h0v0l0,0h0v0h0l0,0v0h0v0l0,0h0l0,0v0l0,0,0,0h0l0,0h0l.05-.07h0l.05-.07h0l0,0h0l0,0h0l0,0h0l0,0h0l0,0h0l0,0h0l0,0h0l0,0v0l0,0h0l0,0h0l0,0h0l0,0h0l0,0h0v0h0l0,0h0l0,0h0l0,0h0l0,0h0l0,0h0l0,0h0l0,0h0A112.37,112.37,0,0,0,335,263.39a6,6,0,0,0-3.81-7.58,5.94,5.94,0,0,0-1.89-.31Zm-6.63-82.7a6,6,0,0,0-5.32,8.78,99.3,99.3,0,0,1,11,38.36,6,6,0,0,0,6,5.53,3.85,3.85,0,0,0,.48,0,6,6,0,0,0,5.51-6.44A112.09,112.09,0,0,0,328,176a6,6,0,0,0-5.32-3.23Zm-63.87-53a6,6,0,0,0-1.73,11.75,99.7,99.7,0,0,1,35.17,18.9,6,6,0,0,0,7.67-9.23q-3.66-3-7.58-5.77h0l-.06-.05h0l0,0h0l0,0h0l0,0h0l0,0h0l0,0h0l0,0h0l0,0h0l0,0h0l-.62-.43h0l0,0h0l0,0h0l0,0h0l0,0h0l0,0h-.05l0,0h-.05l0,0h0l0,0h0l0,0h0l0,0h-.05l0,0h0l0,0h0l0,0h0l0,0h0l0,0h0l0,0h0l-.14-.09h0l-.14-.1h0l-.06,0h0l0,0h0l0,0h0l0,0h0l0,0h-.07l0,0h-.07l0,0h0l0,0h-.05l0,0h-.09v0h-.09l0,0h-.07l0,0h-.06l0,0h0l0,0h-.06l-.06,0h0l0,0h0l0,0H289l0,0h0l0,0h-.08v0h-.09l0,0h-.07l0,0h0l0,0h-.05l0,0h0l0,0h0l0,0h0l0,0h-.09l0,0h-.05l0,0h0l0,0h-.09l0,0h0l0,0h0l0,0,0,0h0l-.08-.05h0l-.07-.05h0l0,0h0l0,0h0l0,0h-.09l0,0h0l0,0h-.07l0,0h-.11l0,0h-.09l0,0h0l0,0h-.09l0,0h0l0,0h0l0,0h0l0,0h0l0,0h-.08l0,0h0l-.22-.14h0l0,0h0l0,0h0l0,0h-.09l0,0h0l0,0h-.09l0,0h0l0,0H286l0,0h-.13l0,0h-.18l0,0h0l-.07,0h0l-.15-.09h-.09l0,0h0l0,0h-.11l0,0h0l0,0h-.15l0,0h-.16l0,0h0l0,0h-.19v0h-.19l-.08-.05h0l0,0h0l0,0h0l0,0H284l0,0h0l0,0h-.18l0,0h0l0,0h-.24l0,0h0l0,0h0l0,0h-.2l0,0h0l-.06,0h0l-.13-.08h0l-.07,0h0l-.06,0h0l0,0h-.31l0,0h0l0,0h0l0,0H282l0,0h0l0,0h0l0,0h0l0,0h0l-.07,0h0l-.45-.24h0l0,0h0l0,0h0l0,0h0l0,0h0l0,0h0l0,0h0l0,0h0l0,0h0l0,0h0l0,0h0l0,0h0l0,0h0l-.07,0h0l-.9-.48h0a111.59,111.59,0,0,0-19.38-7.87,5.75,5.75,0,0,0-1.72-.26Z" fill="#ff7a00"/>
        <path d="M228,173h-5.31l-.18,0h-1.9l-.22,0h-.8l-.22,0h-.84l-.23,0h-.79l-.3.06h-.75l-.26.06h-.65l-.39.09h-.65l-.38.1h-.6l-.43.11h-.43l0,0h0l-.51.15h-.21l0,0h-.21l-.55.17h-.21l0,0h-.09l0,0h-.05L210,176h0l0,0h0l0,0h-.25l-.62.23h0l0,0h0l0,0h-.05l0,0h0l-.65.25h0l0,0H208l0,0h0l0,0h0l-.73.29h0l0,0h0l0,0h0l0,0h0l-.84.36h0l0,0h0l0,0h0l-.8.35h0l0,0h0l0,0h0l0,0h0l0,0h0l0,0h0q-.84.39-1.68.81h0l0,0h0l0,0h0l0,0h0a55.26,55.26,0,0,0-15.34,11.5,6,6,0,0,0,.28,8.48,6,6,0,0,0,8.48-.27A42.57,42.57,0,0,1,228,185a6,6,0,0,0,0-12ZM179.1,225.21h-.39a6,6,0,0,0-5.6,6.37,54.86,54.86,0,0,0,1.4,9.31h0c.09.34.17.69.26,1h0c.06.23.13.45.19.68h0v0h0v0h0l0,.08h0v.05h0v0h0c.06.23.13.46.2.68h0v.05h0v0h0c.09.28.17.56.26.85h0l.27.84h0l0,0h0v0h0l.24.71h0l0,0h0v0h0l0,0h0v0h0l0,0h0c.07.22.15.44.23.66h0v0h0l0,0h0l0,.08h0c.08.22.16.44.25.66h0v0h0l0,0h0v0h0l0,0h0l0,0h0l.27.7h0l0,.08h0l.33.81h0v0h0l.32.72h0l0,0h0v0h0l0,0h0l0,0h0l0,0h0l.27.6h0l0,0h0l0,0h0l0,0h0l0,0h0v0h0l0,0h0c.1.19.19.39.29.59h0v0h0v0h0l0,0h0l0,0h0l0,0h0l0,0h0l.27.55h0v0h0l0,0h0l0,0h0l0,0h0l0,0h0l0,0h0l0,0h0l0,0h0l.22.43h0l0,0h0l0,0h0l0,0h0v0h0v0h0v0h0l0,0h0l0,0h0l0,0h0c.08.15.16.3.25.45h0l0,0h0l0,0h0l0,0h0l0,0h0l0,0h0l0,0h0l0,0h0l0,0h0l0,0h0l0,0h0l.25.45h0l0,0h0v0h0l0,0h0l0,0h0l0,0h0l0,0h0l0,0h0l0,0h0l0,.08h0c.06.1.12.2.17.3h0l0,0h0l0,0h0l0,0h0l0,0h0v0h0l0,0h0l0,0h0l0,0h0l0,0h0l0,0h0l0,0h0l0,0h0l.25.41h0l0,0h0l0,0h0l0,0h0l0,0h0l0,0h0l0,0h0l0,0h0l0,0h0l0,0h0c.08.14.16.27.25.4h0l0,0h0l0,0h0l0,0h0l0,0h0l0,0h0l0,0h0l0,0h0l0,0h0l0,0h0l0,0h0l0,0h0l.21.32h0l0,0h0l0,0h0l0,0h0l0,0h0l0,0h0l0,0h0l0,0h0l0,0h0l0,0h0l0,0h0l.27.4h0l0,0h0l0,0h0l0,0h0l0,0h0l0,0h0l0,0h0l0,0h0l0,0h0l0,0h0l0,0h0l0,0h0l0,0h0l.23.32h0l0,0h0l0,0h0l0,0h0l0,0h0l0,0h0l0,0h0l0,0h0l0,0h0l0,0h0l0,0h0l0,0h0c.09.11.17.23.26.35h0l0,0h0l0,0h0l0,0h0l0,0h0l0,0h0l0,0h0l0,0h0l0,0h0l0,0h0l0,0h0l0,0h0l.21.28h0l0,0h0l0,0h0l0,0h0l0,0h0l0,0h0l0,0h0l0,0h0l0,0h0l0,0h0l0,0h0l0,0h0l0,0h0l0,0h0l0,0h0l0,0h0l.16.21h0l0,0h0l0,0h0l0,0h0l0,0h0l0,0h0l0,0h0l0,0h0l0,0h0l0,0h0l0,0h0l0,0h0l0,0h0l0,0h0l0,0h0l.19.23h0l0,0h0l0,0h0l0,0h0l0,0h0l0,0h0l0,0h0l0,0h0l0,0h0l0,0h0l0,0h0l0,0h0l0,0h0l0,0h0l.19.23h0l0,0h0l0,0h0l0,0h0l0,0h0l0,0h0l0,0h0l0,0h0l0,0h0l0,0h0l0,0h0l0,0h0l0,0h0l0,0h0l0,0h0l0,0h0l.14.16h0l0,0h0l0,0h0l0,0h0l0,0h0l0,0h0l0,0h0l0,0h0l0,0h0l0,0h0l0,0h0l0,0h0l0,0h0l0,0h0l0,0h0l0,0h0l.17.19h0l0,0h0l0,0h0l0,0h0l0,0h0l0,0h0l0,0h0l0,0h0l0,0h0l0,0h0l0,0h0l0,0h0l0,0h0l0,0h0l0,0h0l0,0h0l.18.19h0l0,0h0l0,0h0l0,0h0l0,0h0l0,0h0l0,0h0l0,0h0l0,0h0l0,0h0l0,0h0l0,0h0l0,0h0l0,0h0l0,0h0l0,0h0l.18.19h0l0,0h0l0,0h0l0,0h0l0,0h0l0,0h0l0,0h0l0,0h0l0,0h0l0,0h0l0,0h0l0,0h0l0,0h0l0,0h0l0,0h0l0,0h0l.18.18h0l0,0h0l0,0h0l0,0h0l0,0h0l0,0h0l0,0h0l0,0h0l0,0h0l0,0h0l0,0h0l0,0h0l0,0h0l0,0h0l.24.25h0l0,0h0l0,0h0l0,0h0l0,0h0l0,0h0l0,0h0l0,0h0l0,0h0l0,0h0l0,0h0l0,0h0l0,0h0l0,0h0l0,0h0l.19.18h0l0,0h0l0,0h0l0,0h0l0,0h0l0,0h0l0,0h0l0,0h0l0,0h0l0,0h0l0,0h0l0,0h0l0,0h0l0,0h0l0,0h0l.19.17h0l.06.06h0l0,0h0l0,0h0l0,0h0l0,0h0l0,0h0l0,0h0l0,0h0l0,0h0l0,0h0l0,0h0l0,0h0l0,0h0l0,0h0l.22.2h0l0,0h0l0,0h0l0,0h0l0,0h0l0,0h0l0,0h0l0,0h0l0,0h0l0,0h0l0,0h0l0,0h0l0,0h0l0,0h0l0,0h0l.19.17h0l0,0h0l0,0h0l0,0h0l0,0h0l0,0h0l0,0h0l0,0h0l0,0h0l0,0h0l0,0h0l0,0h0l0,0h0l0,0h0l0,0h0l0,0h0l.23.19h0l0,0h0l0,0h0l0,0h0l0,0h0l0,0h0l0,0h0l0,0h0l0,0h0l0,0h0l0,0h0l0,0h0l0,0h0a6,6,0,0,0,8.44-.82,6,6,0,0,0-.82-8.45,43.1,43.1,0,0,1-15.64-30.42,6,6,0,0,0-6-5.61Zm88.73,25.34a6,6,0,0,0-4.88,2.5,43.15,43.15,0,0,1-29.33,17.59,6,6,0,0,0,.76,11.95,6.64,6.64,0,0,0,.77,0,54.36,54.36,0,0,0,10.48-2.43h0l.72-.25h0l0,0h.08l0,0h0l.47-.17h.24l0,0h0l.39-.15h0l0,0h0l0,0h.05l0,0h.24l0,0h0l.27-.1h0l0,0H249l.22-.1h0l0,0h.44l0,0h.08l.12-.05h.08l0,0h.41l0,0h.13l.1-.05h.66l.09,0h.69l0,0h0l0,0h.63l0,0h0l0,0h0l0,0h0l0,0h0l0,0h.09l0,0h0l0,0h0l0,0h0l0,0h0l0,0h0l0,0h0l0,0h0l0,0h0l0,0h0l0,0h0l0,0h0l0,0h0l.11-.06h.32l0,0h0l0,0h0l0,0h0l0,0h0l0,0h0l0,0h.08l.12-.06h0l0,0h0l0,0h.2l0,0h0l0,0h0l0,0h0l0,0H255l0,0h0l0,0h0l.11-.07h0l0,0h0l0,0h0l0,0h.17l0,0h0l0,0h.16l0,0h0l0,0h0l0,0h0l.07,0h0l0,0h0l0,0h0l0,0h0l0,0h0l0,0h.12l0,0h0l0,0h.09l0,0h0l0,0h0l0,0h0l.15-.09h0l0,0h0l0,0h0l0,0h0l0,0h.08l0,0h0l0,0H257l0,0h0l0,0h.05l0,0h0l0,0h0l.15-.1h0l0,0h0l0,0h0l0,0h0l0,0h0l0,0h0l0,0h.05l0,0h0l0,0h0l0,0h0l0,0h0l0,0h0l.14-.09h0l0,0h0l0,0h.05l0,0h0l0,0h.05l0,0h.05l0,0h0l0,0h.05l0,0h0l0,0h0l0,0h0l0,0h0l.18-.12h0l0,0h.05l0,0h0l0,0h0l0,0h0l0,0H259l0,0h.05l0,0h0l0,0h0l0,0h0l0,0h0l0,0h0l.14-.1h0l0,0h0l0,0h.05l0,0h.05l0,0h0l0,0h.05l0,0h.05l0,0h.05l0,0h0l0,0h0l0,0h0l0,0h0l.06-.05h0l0,0h0l0,0h0l0,0h.05l0,0h.05l0,0h0l0,0h0l0,0h0l0,0h0l0,0h.05l0,0h0l0,0h0l0,0h0l0,0h0l0,0h0l0,0h0l0,0h.05l0,0H261l0,0h0l0,0h.05l0,0h0l0,0h.05l0,0h.05l0,0h0l0,0h.05l0,0h0l0,0h0l0,0h0l0,0h0l0,0h.05l0,0h0v0h0l0,0h0l0,0h0v0h0l0,0,0,0h0l0,0h.05l0,0h0l0,0h.05l0,0h0l0,0h0l0,0h.05v0h0l0,0h0l0,0h0l0,0h0l0,0h0l0,0h0l.09-.07h0l0,0h0l0,0h0l0,0h0l0,0h0l0,0h.05l0,0h0l0,0h0l0,0h0l0,0h0l0,0h0l0,0h0l0,0h0l0,0h0l.16-.13h0l0,0h0l0,0h0l0,0h0l0,0h0l0,0h0l0,0h0l0,0h0l0,0h0l0,0h0l0,0h0l0,0h0l0,0h0l.28-.23h0l0,0h0l0,0h0l0,0h0l0,0h0l0,0h0l0,0h0l0,0h0l0,0h0l0,0h0l0,0h0l.37-.33h0l0,0h0l0,0h0l0,0h0l0,0h0l0,0h0l0,0h0l0,0h0l0,0h0l.49-.44h0a55.71,55.71,0,0,0,7.25-8.24,6,6,0,0,0-4.88-9.48Zm-13.95-70.16a6,6,0,0,0-3.18,11.09,43.15,43.15,0,0,1,19.48,28.13,6,6,0,0,0,5.88,4.83,5.93,5.93,0,0,0,1.17-.11,6,6,0,0,0,4.72-7.05,54.79,54.79,0,0,0-10.42-22.89h0c-.14-.19-.29-.37-.43-.55h0l0,0h0l0,0h0l0,0h0l0,0h0l-.33-.41h0l0,0h0l0,0h0l0,0h0l0,0h0l0,0h0l0,0h0l0,0h0l0,0h0l-.22-.27h0l0,0h0l0,0h0l0,0h0l0,0h0l0,0h0l0,0h0l0,0h0l0,0h0l0,0h0l0,0h0l0,0h0l0,0h0l-.11-.13h0l0,0h0l0,0h0l0,0h0l0,0h0l0,0h0l0,0h0l0,0h0v0l0,0v0h0l0,0h0l0,0h0l0,0h0l0,0h0l0,0h0l0,0h0l-.06-.07h0l0,0h0l0,0h0l0,0h0l0,0v0l0,0h0l0,0h0l0,0h0v0h0v0h0v0l0,0h0l0,0h0l0,0h0v0h0v0l0,0h0v0h0l0,0v0h0l0,0h0l0,0v0h0v0h0v0h0v0h0v0h0v0h0v0h0v0h0l0,0v0h0v0h0v0h0l0,0h0l0,0h0l0-.05h0l0,0h0l0,0h0v0h0v0h0v0h0l0,0h0l0,0h0l0,0h0l0,0h0l0,0h0l0,0h0l0,0h0l0,0h0l0,0h0l0,0h0l-.14-.14h0l0,0h0l0,0h0l0,0h0l0,0h0l0,0h0l0,0h0l0,0h0l0,0h0l0,0h0l0,0h0l0,0h0l0,0h0l0,0h0l-.23-.23h0l0,0h0l0,0h0l0,0h0l0,0h0l0,0h0l0,0h0l0,0h0l0,0h0l0,0h0l-.38-.37h0l-.05,0h0a54.46,54.46,0,0,0-9.32-7.3,6,6,0,0,0-3.16-.9Z" fill="#ff7a00"/>
      </g>
    </g>
  </g>
</svg>
