<svg xmlns="http://www.w3.org/2000/svg" viewBox="0 0 237.22 237.22">
  <g id="Layer_2" data-name="Layer 2">
    <g id="Layer_1-2" data-name="Layer 1">
      <g>
        <circle cx="118.61" cy="118.61" r="114.11" fill="#110f6f" stroke="#110f6f" stroke-linecap="round" stroke-miterlimit="10" stroke-width="9"/>
        <g>
          <path d="M178,67.75v90.4a11.5,11.5,0,0,1-11.5,11.49H67.58a8.32,8.32,0,0,0,8.32-8.32V102.65h0V67.75a.16.16,0,0,1,.17-.17H177.79A.17.17,0,0,1,178,67.75Z" fill="#fff"/>
          <path d="M75.9,102.65v58.67a8.32,8.32,0,0,1-8.32,8.32h0a8.31,8.31,0,0,1-8.29-8.32V102.65Z" fill="#e6e6e6"/>
          <rect x="88.03" y="82.86" width="29.67" height="29.67" rx="4.89" fill="#e6e6e6"/>
          <line x1="131.65" y1="82.86" x2="166.72" y2="82.86" fill="#fff" stroke="#110f6f" stroke-linecap="round" stroke-miterlimit="10" stroke-width="6"/>
          <line x1="131.65" y1="93.21" x2="147.83" y2="93.21" fill="#fff" stroke="#110f6f" stroke-linecap="round" stroke-miterlimit="10" stroke-width="6"/>
          <line x1="157.28" y1="93.21" x2="166.72" y2="93.21" fill="#fff" stroke="#110f6f" stroke-linecap="round" stroke-miterlimit="10" stroke-width="6"/>
          <line x1="131.65" y1="104.9" x2="166.72" y2="104.9" fill="#fff" stroke="#110f6f" stroke-linecap="round" stroke-miterlimit="10" stroke-width="6"/>
          <line x1="88.03" y1="123.33" x2="166.72" y2="123.33" fill="#fff" stroke="#110f6f" stroke-linecap="round" stroke-miterlimit="10" stroke-width="6"/>
          <line x1="88.03" y1="134.57" x2="115.01" y2="134.57" fill="#fff" stroke="#110f6f" stroke-linecap="round" stroke-miterlimit="10" stroke-width="6"/>
          <line x1="133.9" y1="134.57" x2="166.72" y2="134.57" fill="#fff" stroke="#110f6f" stroke-linecap="round" stroke-miterlimit="10" stroke-width="6"/>
          <line x1="88.03" y1="146.71" x2="105.57" y2="146.71" fill="#fff" stroke="#110f6f" stroke-linecap="round" stroke-miterlimit="10" stroke-width="6"/>
          <line x1="115.01" y1="146.71" x2="166.72" y2="146.71" fill="#fff" stroke="#110f6f" stroke-linecap="round" stroke-miterlimit="10" stroke-width="6"/>
        </g>
      </g>
    </g>
  </g>
</svg>
