<svg xmlns="http://www.w3.org/2000/svg" viewBox="0 0 237.22 237.22">
  <g id="Layer_2" data-name="Layer 2">
    <g id="Layer_1-2" data-name="Layer 1">
      <g>
        <circle cx="118.61" cy="118.61" r="114.11" fill="#110f6f" stroke="#110f6f" stroke-linecap="round" stroke-miterlimit="10" stroke-width="9"/>
        <path d="M123.78,64.27l14.14,28.66a5.75,5.75,0,0,0,4.34,3.15l31.63,4.59a5.76,5.76,0,0,1,3.19,9.83L154.2,132.81a5.76,5.76,0,0,0-1.66,5.1l5.4,31.5a5.76,5.76,0,0,1-8.36,6.08l-28.29-14.87a5.71,5.71,0,0,0-5.36,0L87.64,175.49a5.76,5.76,0,0,1-8.36-6.08l5.4-31.5a5.76,5.76,0,0,0-1.66-5.1L60.14,110.5a5.76,5.76,0,0,1,3.19-9.83L95,96.08a5.77,5.77,0,0,0,4.34-3.15l14.14-28.66A5.76,5.76,0,0,1,123.78,64.27Z" fill="#fff" stroke="#fff" stroke-linecap="round" stroke-miterlimit="10" stroke-width="9"/>
      </g>
    </g>
  </g>
</svg>
